<svg width="736" height="500" viewBox="0 0 736 500" fill="none" xmlns="http://www.w3.org/2000/svg">
<path d="M468.008 98.428C469.585 97.475 471.265 96.752 472.996 96.26L473.725 92.755C473.899 91.917 474.631 91.312 475.486 91.297L480.902 91.202C481.758 91.187 482.51 91.766 482.713 92.598L483.565 96.075C485.313 96.506 487.017 97.169 488.627 98.066L491.66 96.078C492.352 95.625 493.265 95.711 493.86 96.285L497.828 100.116C498.423 100.69 498.541 101.6 498.112 102.307L496.232 105.408C497.185 106.986 497.908 108.666 498.4 110.398L502.236 111.196C502.88 111.33 503.345 111.892 503.357 112.55L503.464 118.643C503.476 119.301 503.03 119.879 502.392 120.035L498.586 120.968C498.155 122.716 497.492 124.419 496.595 126.029L498.414 128.804C498.966 129.647 498.862 130.76 498.162 131.485L494.761 135.008C494.061 135.733 492.952 135.877 492.09 135.354L489.253 133.634C487.675 134.587 485.996 135.31 484.264 135.802L483.488 139.53C483.341 140.238 482.723 140.749 482 140.762L476.13 140.865C475.407 140.878 474.772 140.388 474.6 139.686L473.694 135.988C471.946 135.557 470.243 134.894 468.633 133.997L465.629 135.966C464.92 136.431 463.983 136.343 463.373 135.754L459.456 131.972C458.846 131.383 458.725 130.45 459.165 129.725L461.027 126.655C460.074 125.077 459.351 123.398 458.859 121.666L454.957 120.854C454.351 120.728 453.914 120.199 453.903 119.581L453.794 113.354C453.783 112.736 454.202 112.192 454.803 112.045L458.674 111.096C459.105 109.348 459.768 107.645 460.665 106.035L458.746 103.107C458.252 102.353 458.346 101.358 458.972 100.71L462.627 96.924C463.253 96.276 464.244 96.147 465.015 96.614L468.008 98.428ZM473.597 108.538C468.62 112.248 468.75 119.629 473.855 123.161C476.946 125.3 481.177 125.226 484.191 122.98C489.17 119.271 489.04 111.887 483.933 108.355C480.841 106.217 476.611 106.292 473.597 108.538Z" fill="#E7A5DD"/>
<path d="M239.641 350.775C240.519 350.244 241.453 349.842 242.417 349.568L242.823 347.617C242.92 347.151 243.327 346.814 243.803 346.805L246.817 346.752C247.293 346.744 247.712 347.066 247.825 347.529L248.299 349.464C249.272 349.704 250.22 350.073 251.116 350.572L252.804 349.465C253.189 349.213 253.697 349.261 254.029 349.58L256.237 351.712C256.568 352.032 256.634 352.538 256.395 352.932L255.349 354.658C255.88 355.536 256.282 356.471 256.555 357.435L258.69 357.879C259.048 357.954 259.307 358.266 259.314 358.633L259.374 362.024C259.38 362.39 259.133 362.712 258.777 362.799L256.659 363.318C256.419 364.291 256.05 365.239 255.551 366.135L256.563 367.68C256.87 368.149 256.812 368.769 256.422 369.172L254.529 371.133C254.139 371.537 253.522 371.617 253.043 371.326L251.464 370.369C250.586 370.899 249.651 371.302 248.687 371.575L248.255 373.65C248.173 374.044 247.829 374.329 247.427 374.336L244.16 374.393C243.758 374.4 243.404 374.128 243.308 373.737L242.803 371.679C241.83 371.439 240.882 371.07 239.986 370.571L238.314 371.667C237.919 371.926 237.398 371.877 237.059 371.549L234.879 369.444C234.539 369.116 234.472 368.597 234.717 368.194L235.753 366.485C235.223 365.607 234.82 364.672 234.546 363.708L232.375 363.256C232.038 363.186 231.794 362.892 231.788 362.547L231.727 359.081C231.721 358.737 231.954 358.434 232.288 358.352L234.443 357.824C234.683 356.851 235.052 355.903 235.551 355.007L234.483 353.377C234.208 352.958 234.26 352.404 234.609 352.043L236.643 349.936C236.991 349.575 237.543 349.504 237.972 349.764L239.641 350.775ZM242.751 356.402C239.981 358.467 240.054 362.575 242.895 364.54C244.615 365.73 246.97 365.689 248.648 364.439C251.419 362.374 251.347 358.265 248.505 356.299C246.783 355.11 244.429 355.152 242.751 356.402Z" fill="white"/>
<path d="M634.195 265.098C634.984 264.621 635.823 264.26 636.689 264.014L637.054 262.261C637.141 261.842 637.507 261.539 637.935 261.532L640.643 261.485C641.071 261.477 641.447 261.767 641.549 262.183L641.975 263.921C642.849 264.136 643.701 264.468 644.506 264.917L646.023 263.923C646.369 263.696 646.825 263.739 647.123 264.027L649.107 265.943C649.404 266.23 649.463 266.685 649.249 267.039L648.309 268.589C648.786 269.378 649.147 270.218 649.393 271.084L651.311 271.483C651.633 271.55 651.866 271.831 651.871 272.16L651.925 275.207C651.931 275.536 651.708 275.825 651.389 275.903L649.486 276.369C649.271 277.243 648.939 278.095 648.49 278.9L649.399 280.288C649.675 280.709 649.623 281.266 649.273 281.629L647.572 283.39C647.222 283.753 646.668 283.825 646.237 283.563L644.819 282.703C644.03 283.18 643.19 283.541 642.324 283.787L641.936 285.651C641.862 286.005 641.553 286.261 641.192 286.267L638.257 286.319C637.896 286.325 637.578 286.081 637.492 285.73L637.039 283.881C636.165 283.666 635.313 283.334 634.508 282.885L633.006 283.869C632.651 284.101 632.183 284.057 631.878 283.763L629.92 281.872C629.615 281.578 629.555 281.111 629.774 280.749L630.705 279.214C630.228 278.425 629.867 277.586 629.621 276.719L627.67 276.313C627.367 276.25 627.148 275.986 627.143 275.676L627.088 272.563C627.083 272.254 627.292 271.982 627.592 271.908L629.527 271.433C629.742 270.559 630.074 269.707 630.523 268.902L629.563 267.438C629.316 267.061 629.363 266.564 629.676 266.24L631.503 264.347C631.816 264.023 632.312 263.959 632.697 264.192L634.195 265.098ZM636.99 270.153C634.502 272.008 634.567 275.698 637.119 277.464C638.665 278.533 640.78 278.496 642.287 277.373C644.776 275.518 644.712 271.826 642.158 270.06C640.612 268.992 638.497 269.03 636.99 270.153Z" fill="white"/>
<path d="M430.794 71.119C431.583 70.642 432.422 70.281 433.288 70.035L433.653 68.283C433.74 67.864 434.106 67.561 434.534 67.554L437.242 67.506C437.67 67.499 438.046 67.788 438.148 68.204L438.574 69.943C439.448 70.158 440.3 70.49 441.105 70.939L442.622 69.945C442.968 69.718 443.425 69.761 443.722 70.049L445.706 71.965C446.003 72.252 446.062 72.707 445.848 73.061L444.908 74.611C445.385 75.4 445.746 76.24 445.992 77.106L447.91 77.505C448.232 77.572 448.465 77.853 448.47 78.182L448.524 81.229C448.53 81.558 448.307 81.847 447.988 81.925L446.085 82.391C445.87 83.265 445.538 84.117 445.089 84.922L445.998 86.31C446.274 86.732 446.222 87.288 445.872 87.65L444.171 89.411C443.821 89.774 443.266 89.846 442.836 89.584L441.418 88.724C440.629 89.201 439.789 89.562 438.923 89.808L438.535 91.672C438.461 92.026 438.152 92.282 437.791 92.288L434.856 92.339C434.495 92.345 434.177 92.101 434.091 91.75L433.638 89.901C432.764 89.686 431.912 89.354 431.107 88.905L429.605 89.889C429.25 90.121 428.782 90.077 428.477 89.783L426.519 87.892C426.214 87.598 426.153 87.131 426.373 86.769L427.304 85.234C426.827 84.445 426.466 83.606 426.22 82.739L424.269 82.333C423.966 82.27 423.747 82.006 423.742 81.696L423.687 78.582C423.682 78.273 423.891 78.001 424.191 77.927L426.127 77.452C426.342 76.578 426.674 75.726 427.123 74.921L426.163 73.457C425.916 73.08 425.963 72.583 426.276 72.258L428.103 70.365C428.416 70.041 428.912 69.977 429.297 70.21L430.794 71.119ZM433.588 76.174C431.1 78.029 431.165 81.719 433.717 83.485C435.263 84.554 437.378 84.517 438.885 83.394C441.374 81.539 441.31 77.847 438.756 76.082C437.21 75.013 435.095 75.051 433.588 76.174Z" fill="#E7A5DD"/>
<path d="M332.618 68.414C331.747 66.996 329.08 64.37 327.767 63.259C326.454 62.148 324.658 61.515 322.947 61.81C321.015 62.143 319.487 63.546 318.122 64.919C314.654 68.41 311.441 72.132 308.232 75.851C306.714 73.504 304.653 69.253 301.37 69.583C300.196 69.701 299.479 70.245 298.425 71.327C297.097 72.689 295.859 74.697 294.33 77.01L292.647 79.402V82.224C292.647 85.23 295.147 87.668 298.23 87.668H327.036C330.119 87.668 332.619 85.231 332.619 82.224V68.414H332.618Z" fill="#8C98E9"/>
<path d="M312.633 59.203C312.633 61.94 310.357 64.159 307.551 64.159C304.744 64.159 302.469 61.94 302.469 59.203C302.469 56.466 304.745 54.247 307.551 54.247C310.357 54.247 312.633 56.466 312.633 59.203Z" fill="#F9CA51"/>
<path d="M326.01 87.667H299.254C295.605 87.667 292.646 84.709 292.646 81.059V53.952C292.646 50.302 295.605 47.344 299.254 47.344H326.01C329.66 47.344 332.618 50.302 332.618 53.952V81.059C332.618 84.709 329.66 87.667 326.01 87.667Z" stroke="white" stroke-miterlimit="10"/>
<path d="M254.483 320.019C254.483 320.019 257.12 308.343 243.541 302.497L247.158 292.534L215.387 282.983L206.599 307.044L254.483 320.019Z" fill="#8C98E9"/>
<path d="M250.57 304.722C247.949 305.075 245.362 305.636 242.83 306.402C242.369 306.541 242.566 307.265 243.029 307.125C245.561 306.359 248.147 305.798 250.769 305.445C251.245 305.382 251.042 304.659 250.57 304.722Z" fill="#2C2C2C"/>
<path d="M247.717 302.836C245.367 303.494 243.016 304.152 240.666 304.811C240.202 304.941 240.399 305.665 240.865 305.534C243.215 304.876 245.566 304.218 247.916 303.559C248.381 303.429 248.184 302.706 247.717 302.836Z" fill="#2C2C2C"/>
<path d="M201.663 292.951C201.663 292.951 210.126 284.485 201.764 272.293L210.14 265.799L188.373 240.763L168.097 256.418L201.663 292.951Z" fill="#8C98E9"/>
<path d="M206.6 277.962C204.166 276.847 201.65 275.925 199.069 275.213C198.603 275.084 198.404 275.808 198.87 275.936C201.388 276.631 203.847 277.522 206.222 278.609C206.657 278.809 207.039 278.163 206.6 277.962Z" fill="#2C2C2C"/>
<path d="M205.105 274.806C202.766 274.108 200.427 273.41 198.089 272.712C197.625 272.574 197.428 273.297 197.89 273.435C200.229 274.133 202.568 274.831 204.906 275.529C205.37 275.668 205.568 274.944 205.105 274.806Z" fill="#2C2C2C"/>
<path d="M241.934 204.332C225.205 218.125 201.444 230.245 184.246 243.047C190.842 250.222 206.858 273.998 206.858 273.998C223.389 261.37 245.672 240.395 262.913 224.601C268.646 219.35 272.731 211.405 271.489 203.731C270.142 195.406 262.219 189.781 254.386 186.656C246.553 183.531 235.131 178.458 235.131 178.458L232.524 165.987L219.679 165.733C218.839 166.393 217.136 174.336 217.136 174.336L241.934 204.332Z" fill="#E7A5DD"/>
<path d="M259.459 215.1C253.78 200.996 230.333 181.086 219.641 170.276L219.333 156.273L189.697 159.991C184.766 168.423 182.441 178.776 185.274 188.123C188.255 197.959 196.605 203.132 205.106 208.91C213.606 214.688 222.689 221.674 230.056 228.842C225.624 245.464 217.918 268.809 213.486 285.431L249.566 298.418C252.741 287.011 257.073 264.357 260.006 252.885C263.039 241.027 263.881 226.085 259.459 215.1Z" fill="#E7A5DD"/>
<path d="M192.265 199.503C202.016 207.004 211.767 214.504 221.517 222.004C223.721 223.699 226.381 225.411 227.592 228.024C228.86 230.759 227.615 233.712 227.002 236.442C226.644 238.036 226.288 239.621 225.87 241.202C222.856 252.591 219.457 263.886 216.128 275.186C215.131 278.57 214.131 281.953 213.125 285.334C212.987 285.798 213.71 285.996 213.848 285.533C216.517 276.57 219.155 267.598 221.751 258.614C223.36 253.046 224.973 247.478 226.467 241.878C226.854 240.427 227.242 238.975 227.546 237.504C228.043 235.098 229.043 232.641 228.884 230.148C228.733 227.782 227.318 225.868 225.619 224.321C223.237 222.153 220.521 220.298 217.971 218.336C215.157 216.171 212.343 214.007 209.529 211.842C203.901 207.513 198.273 203.184 192.645 198.855C192.261 198.561 191.887 199.212 192.265 199.503Z" fill="#2C2C2C"/>
<path d="M262.507 240.863C264.062 230.651 263.324 218.256 256.549 209.906C252.295 204.662 247.928 199.34 242.894 194.82C240.225 192.423 237.533 190.065 234.925 187.6C232.373 185.188 229.901 182.508 227.118 180.362C226.691 180.033 226.625 180.142 226.551 179.786C226.504 179.562 226.609 179.229 226.633 179C226.731 178.054 226.83 177.108 226.929 176.161C227.08 174.712 227.231 173.263 227.382 171.814C227.432 171.335 226.681 171.338 226.632 171.814C226.507 173.017 226.381 174.221 226.256 175.424C226.11 176.829 225.75 178.373 225.802 179.786C225.827 180.477 226.413 180.736 226.937 181.199C228.208 182.324 229.456 183.474 230.695 184.634C233.239 187.016 235.744 189.442 238.323 191.786C240.89 194.119 243.543 196.329 245.953 198.831C248.268 201.234 250.435 203.773 252.578 206.328C254.514 208.636 256.6 210.866 258.093 213.499C259.51 215.997 260.484 218.73 261.157 221.516C262.662 227.745 262.746 234.345 261.784 240.664C261.712 241.136 262.435 241.339 262.507 240.863Z" fill="#2C2C2C"/>
<path d="M249.721 297.875C237.65 293.908 225.844 289.181 213.773 285.214C213.313 285.063 213.116 285.787 213.574 285.937C225.645 289.904 237.451 294.631 249.522 298.598C249.981 298.749 250.178 298.025 249.721 297.875Z" fill="#2C2C2C"/>
<path d="M207.46 273.534C199.164 263.831 192.455 252.914 184.314 243.089C184.006 242.717 183.478 243.25 183.784 243.619C191.925 253.444 198.634 264.361 206.93 274.064C207.243 274.431 207.772 273.899 207.46 273.534Z" fill="#2C2C2C"/>
<path opacity="0.3" d="M278.246 112.127L278.106 137.588L281.719 137.964L286.588 136.229L287.007 109.29C287.007 109.29 279.454 109.38 278.246 112.127Z" fill="white"/>
<path d="M269.55 133.425L246.338 159.649L250.304 163.159L273.515 136.936L269.55 133.425Z" fill="#2C2C2C"/>
<path d="M274.591 115.079C280.872 108.511 290.979 107.692 296.388 111.575C296.104 111.216 294.574 109.837 294.236 109.516C288.997 104.517 279.308 106.155 272.595 113.174C265.881 120.194 264.686 129.937 269.925 134.936C270.262 135.258 270.619 135.55 270.992 135.817C266.862 130.598 268.31 121.647 274.591 115.079Z" fill="#2C2C2C"/>
<path d="M296.233 111.421C295.896 111.099 293.327 109.167 292.954 108.9C297.084 114.12 297.847 124.71 291.566 131.278C285.285 137.846 276.4 139.7 270.991 135.818C271.275 136.177 271.584 136.52 271.921 136.842C277.16 141.841 286.849 140.203 293.562 133.184C300.276 126.164 301.472 116.42 296.233 111.421Z" fill="#2C2C2C"/>
<path d="M241.326 146.054L250.559 142.12C250.559 142.12 255.116 138.199 258.121 137.027C261.126 135.855 263.346 136.058 265.202 136.244C267.058 136.43 271.226 137.848 270.193 140.037C269.487 141.533 267.963 140.863 265.707 140.386C263.451 139.909 260.031 140.965 260.031 140.965C260.031 140.965 266.077 144.298 266.291 147.903C266.291 147.903 266.451 150.078 263.468 149.634C263.468 149.634 263.6 153.04 260.296 152.35C260.296 152.35 258.003 149.472 256.089 148.243L254.987 147.751C254.987 147.751 257.725 151.834 257.421 153.11C257.118 154.386 256.394 155.451 255.14 154.976C253.885 154.501 253.8 152.264 252.303 151.346C252.303 151.346 250.966 153.138 250.411 153.892C249.857 154.647 240.482 159.022 240.482 159.022C240.482 159.022 242.675 154.046 243.477 151.356C244.454 148.077 241.326 146.054 241.326 146.054Z" fill="#F4B298"/>
<path d="M262.942 142.484C261.478 140.672 259.059 139.806 256.776 140.195C256.301 140.276 256.503 140.999 256.975 140.918C259.006 140.572 261.125 141.421 262.412 143.014C262.715 143.39 263.242 142.856 262.942 142.484Z" fill="#ED796A"/>
<path d="M263.411 149.564C261.704 146.199 258.613 143.632 255.001 142.55C254.538 142.411 254.34 143.135 254.802 143.273C258.237 144.302 261.142 146.747 262.763 149.942C262.982 150.373 263.629 149.994 263.411 149.564Z" fill="#ED796A"/>
<path d="M275.969 134.367C280.902 135.012 286.026 132.926 289.109 129.022C289.405 128.647 288.878 128.113 288.579 128.492C285.6 132.265 280.736 134.241 275.97 133.618C275.492 133.555 275.496 134.306 275.969 134.367Z" fill="white"/>
<path d="M299.163 115.944C298.457 110.267 291.989 108.555 287.123 108.875C281.892 109.219 276.924 111.724 273.568 115.751C273.261 116.119 273.789 116.653 274.098 116.281C277.056 112.732 281.274 110.387 285.856 109.755C290.483 109.117 297.702 110.227 298.412 115.944C298.472 116.417 299.223 116.423 299.163 115.944Z" fill="white"/>
<path d="M198.356 62.922C202.34 62.634 206.23 64.154 209.789 65.969C213.348 67.783 216.361 71.702 220.19 72.842C226.515 74.724 235.008 70.842 241.581 70.247C248.153 69.652 253.674 69.837 259.221 73.413C263.55 76.204 267.114 81.858 267.495 86.995C267.837 91.609 263.156 106.013 250.659 112.655L250.675 112.648C250.667 112.652 250.659 112.655 250.65 112.659C249.235 113.41 247.72 114.069 246.089 114.599L246.254 114.529C228.849 120.876 213.042 113.992 203.076 112.028C197.431 110.915 191.814 109.132 187.099 105.835C182.384 102.538 178.634 97.568 177.748 91.883C176.863 86.198 179.263 79.887 184.231 76.985C185.732 76.108 187.511 75.462 188.401 73.969C189.163 72.69 189.075 71.098 189.413 69.648C190.32 65.757 194.372 63.21 198.356 62.922Z" fill="#2C2C2C"/>
<path d="M244.446 106.974C244.27 107.317 238.339 118.839 238.339 118.839L224.776 111.858L232.948 95.23L244.446 106.974Z" fill="#F6C2A1"/>
<path d="M243.568 111.283C243.568 111.283 252.997 114.428 258 104.734C259.711 101.42 261.491 97.893 264.007 91.384C266.712 84.386 263.142 79.084 255.97 75.576L255.257 75.227C247.367 71.89 240.472 73.551 237.613 81.079L234.937 88.371C234.937 88.371 226.61 103.014 243.554 111.288" fill="#F6C2A1"/>
<path d="M258.291 97.656C258.043 98.215 257.358 98.46 256.762 98.207C256.167 97.954 255.884 97.297 256.132 96.738C256.381 96.18 257.065 95.933 257.66 96.186C258.257 96.44 258.54 97.098 258.291 97.656Z" fill="#2C2C2C"/>
<path d="M248.33 93.376C248.082 93.934 247.397 94.18 246.801 93.927C246.206 93.674 245.923 93.017 246.171 92.458C246.419 91.9 247.104 91.653 247.699 91.906C248.297 92.159 248.579 92.818 248.33 93.376Z" fill="#2C2C2C"/>
<path d="M245.531 88.456C246.726 88.332 247.959 88.856 248.65 89.852C248.765 90.018 248.979 90.094 249.163 89.986C249.328 89.89 249.413 89.64 249.298 89.473C248.465 88.271 246.997 87.553 245.531 87.705C245.329 87.726 245.156 87.862 245.156 88.08C245.156 88.268 245.328 88.478 245.531 88.456Z" fill="#2C2C2C"/>
<path d="M256.532 93.585C257.727 93.461 258.961 93.985 259.651 94.981C259.766 95.147 259.98 95.223 260.164 95.116C260.329 95.02 260.414 94.77 260.298 94.603C259.465 93.401 257.997 92.683 256.531 92.835C256.33 92.856 256.156 92.992 256.156 93.21C256.157 93.396 256.329 93.606 256.532 93.585Z" fill="#2C2C2C"/>
<path d="M257.906 90.454C258.202 90.545 258.492 90.65 258.777 90.769C258.677 90.727 258.578 90.685 258.478 90.643C259.152 90.93 259.788 91.297 260.373 91.739C260.615 91.921 261.059 91.941 261.336 91.865C261.626 91.785 261.94 91.561 262.083 91.291C262.236 91.001 262.313 90.649 262.209 90.328C262.167 90.228 262.125 90.129 262.083 90.029C261.972 89.841 261.822 89.692 261.635 89.58C260.719 88.889 259.666 88.378 258.57 88.043C258.265 87.95 257.879 88.01 257.607 88.169C257.348 88.321 257.1 88.618 257.033 88.916C256.879 89.593 257.237 90.249 257.906 90.454Z" fill="#2C2C2C"/>
<path d="M246.895 86.111C247.191 86.201 247.481 86.307 247.766 86.426C247.666 86.384 247.567 86.342 247.467 86.3C248.141 86.587 248.777 86.954 249.362 87.396C249.604 87.578 250.048 87.598 250.325 87.522C250.615 87.442 250.929 87.218 251.072 86.947C251.225 86.657 251.302 86.305 251.198 85.984C251.156 85.885 251.114 85.785 251.072 85.685C250.961 85.497 250.811 85.348 250.623 85.237C249.707 84.546 248.654 84.035 247.558 83.7C247.253 83.607 246.867 83.667 246.595 83.826C246.336 83.978 246.088 84.275 246.021 84.573C245.868 85.249 246.225 85.906 246.895 86.111Z" fill="#2C2C2C"/>
<path d="M234.709 88.506C236.939 93.861 244.629 86.116 250.157 84.017C254.203 82.48 261.357 81.981 264.102 78.506C264.102 78.506 258.047 69.463 248.663 70.764C239.279 72.065 234.309 80.681 234.309 80.681L234.709 88.506Z" fill="#2C2C2C"/>
<path d="M233.757 86.85C235.203 86.994 236.375 88.079 237.109 89.338L234.003 95.489C232.513 95.411 231.077 94.656 230.265 93.408C229.452 92.159 229.321 90.427 230.024 89.039C230.727 87.651 232.275 86.702 233.757 86.85Z" fill="#F6C2A1"/>
<path d="M234.999 91.297C235.269 90.18 234.628 88.86 233.612 88.343C233.254 88.161 232.864 88.072 232.463 88.071C231.98 88.071 231.98 88.821 232.463 88.821C232.56 88.821 232.657 88.825 232.753 88.838C232.671 88.827 232.811 88.85 232.825 88.853C232.869 88.862 232.913 88.873 232.957 88.885C233 88.897 233.042 88.91 233.084 88.925C233.099 88.93 233.224 88.984 233.146 88.948C233.214 88.98 233.281 89.013 233.345 89.051C233.381 89.072 233.417 89.095 233.452 89.119C233.465 89.128 233.571 89.208 233.503 89.153C233.568 89.205 233.63 89.26 233.689 89.319C233.748 89.377 233.801 89.439 233.854 89.503C233.88 89.536 233.88 89.535 233.852 89.5C233.864 89.516 233.876 89.533 233.888 89.55C233.909 89.579 233.929 89.609 233.948 89.639C233.989 89.703 234.028 89.769 234.063 89.836C234.082 89.872 234.1 89.908 234.117 89.944C234.125 89.96 234.174 90.081 234.139 89.992C234.193 90.133 234.24 90.276 234.271 90.424C234.278 90.456 234.284 90.489 234.29 90.521C234.293 90.539 234.296 90.558 234.299 90.576C234.292 90.522 234.291 90.516 234.296 90.559C234.3 90.631 234.308 90.702 234.309 90.774C234.31 90.843 234.302 90.911 234.299 90.98C234.296 91.048 234.318 90.897 234.295 91.003C234.288 91.035 234.282 91.066 234.275 91.097C234.227 91.294 234.337 91.504 234.537 91.558C234.729 91.612 234.951 91.495 234.999 91.297Z" fill="#ED796A"/>
<path d="M243.493 111.006C240.863 110.012 238.712 107.849 237.731 105.215C237.564 104.767 236.839 104.961 237.008 105.414C238.088 108.314 240.4 110.635 243.294 111.729C243.746 111.899 243.941 111.175 243.493 111.006Z" fill="#ED796A"/>
<path d="M252.05 94.109C251.831 94.84 251.612 95.571 251.393 96.302C251.284 96.667 251.174 97.033 251.064 97.398C250.972 97.706 250.877 98.026 251.047 98.327C251.169 98.543 251.385 98.691 251.604 98.793C251.713 98.844 252.14 98.974 252.097 99.115C252.07 99.204 251.807 99.296 251.736 99.33C251.569 99.409 251.401 99.487 251.233 99.565C250.861 99.739 250.488 99.914 250.116 100.088C249.679 100.292 250.06 100.939 250.494 100.736C250.866 100.562 251.239 100.387 251.612 100.213C251.936 100.061 252.31 99.936 252.579 99.691C253.094 99.223 252.823 98.562 252.277 98.276C252.089 98.177 251.719 98.114 251.705 97.877C251.696 97.715 251.827 97.465 251.873 97.308C251.931 97.116 251.988 96.923 252.046 96.731C252.288 95.923 252.53 95.115 252.772 94.308C252.912 93.845 252.188 93.647 252.05 94.109Z" fill="#2C2C2C"/>
<path d="M244.582 98.941C244.815 98.795 245.098 98.691 245.365 98.758C245.686 98.838 245.898 99.134 246.083 99.408C246.752 100.407 247.608 101.741 248.217 102.826C247.396 103.267 246.223 103.697 245.348 103.376C244.473 103.056 243.759 102.284 243.578 101.37C243.397 100.457 243.793 99.437 244.582 98.941Z" fill="#ED796A"/>
<path d="M255.116 71.506C247.861 67.975 239.823 71.619 232.473 72.877C228.207 73.607 223.828 73.546 220.022 71.244C216.014 68.821 213.305 64.863 210.237 61.435C207.09 57.919 203.25 54.655 198.359 54.256C197.878 54.217 197.881 54.967 198.359 55.006C207.91 55.786 211.831 66.67 218.992 71.476C225.834 76.068 233.861 73.321 241.188 71.705C245.677 70.715 250.452 70.068 254.738 72.154C255.17 72.364 255.55 71.718 255.116 71.506Z" fill="#2C2C2C"/>
<path d="M225.541 115.923C226.551 113.594 226.459 110.854 225.152 108.653C223.957 106.641 221.853 105.234 219.546 104.873C219.074 104.799 218.871 105.522 219.347 105.596C221.417 105.92 223.307 107.109 224.423 108.897C225.654 110.87 225.817 113.416 224.894 115.544C224.704 115.983 225.35 116.365 225.541 115.923Z" fill="#2C2C2C"/>
<path d="M167.764 154.532C164.443 155.848 161.006 157.24 158.565 159.848C156.123 162.456 154.985 166.651 156.915 169.657C153.522 170.444 150.265 172.173 148.114 174.912C145.963 177.652 145.063 181.471 146.253 184.745C147.443 188.019 150.914 190.457 154.368 190.008C151.992 194.973 154.155 201.622 158.998 204.238C163.841 206.854 170.588 205.017 173.437 200.307C176.286 195.597 174.78 188.769 170.215 185.694C174.699 184.918 177.887 180.193 177.604 175.651C177.321 171.109 174.064 167.075 169.954 165.121C172.701 163.273 174.121 159.082 171.772 157.601L173.946 154.466L170.096 152.115L167.764 154.532Z" fill="white"/>
<path d="M198.831 99.155C194.881 98.976 191.007 100.641 187.918 103.109C184.829 105.578 182.439 108.807 180.3 112.133C177.692 116.186 175.4 120.442 173.45 124.85C171.961 128.216 170.649 131.862 171.19 135.502C171.855 139.97 175.272 143.645 179.249 145.786C183.226 147.927 187.749 148.782 192.19 149.609L220.201 109.486C216.255 106.571 203.731 99.377 198.831 99.155Z" fill="#8C98E9"/>
<path d="M188.453 137.764L180.099 132.255L169.728 147.982L178.082 153.491L188.453 137.764Z" fill="#8C98E9"/>
<path d="M164.91 149.049L169.723 147.99L178.078 153.5L178.566 158.055L164.91 149.049Z" fill="#8C98E9"/>
<path d="M173.353 141.517C176.037 143.355 178.721 145.192 181.405 147.03C181.784 147.289 182.163 147.549 182.541 147.808C182.94 148.081 183.316 147.432 182.92 147.16C180.236 145.322 177.552 143.485 174.868 141.647C174.489 141.388 174.11 141.128 173.732 140.869C173.333 140.596 172.957 141.246 173.353 141.517Z" fill="#2C2C2C"/>
<path d="M169.534 148.314C171.99 149.843 174.446 151.372 176.903 152.901C177.252 153.118 177.6 153.335 177.949 153.552C178.36 153.808 178.737 153.159 178.328 152.904C175.872 151.375 173.416 149.846 170.959 148.317C170.611 148.1 170.262 147.883 169.913 147.666C169.501 147.411 169.124 148.059 169.534 148.314Z" fill="#2C2C2C"/>
<path d="M228.626 105.44C229.127 106.389 234.84 110.822 239.39 116.798C243.118 121.694 238.503 136.854 237.689 140.452C235.882 148.442 250.112 169.189 237.403 166.624C220.116 163.134 183.271 173.173 184.571 158.407C185.982 142.381 198.401 109.414 212.075 106.315C220.511 104.404 228.626 105.44 228.626 105.44Z" fill="white"/>
<path d="M196.459 141.52L182.714 145.692C182.543 149.291 183.558 153 185.842 155.787C188.126 158.574 191.731 160.332 195.323 160.055C199.572 159.728 203.119 156.799 206.236 153.893C202.285 150.385 198.959 146.175 196.459 141.52Z" fill="#8C98E9"/>
<path d="M207.492 108.79C197.75 117.067 194.625 125.365 189.351 134.422C187.477 137.64 185.667 141.039 185.348 144.748C184.834 150.737 188.691 156.755 194.231 159.088C198.624 160.938 203.5 161.275 208.247 161.699C225.906 163.277 241.37 159.616 241.37 159.616L245.49 142.026L212.107 140.487L224.209 119.577" fill="white"/>
<path d="M207.227 108.525C201.094 113.78 196.733 120.208 192.895 127.244C191.015 130.691 188.938 134.068 187.195 137.584C185.491 141.021 184.427 144.757 185.217 148.592C185.894 151.878 187.752 154.922 190.305 157.09C193.306 159.639 197.187 160.694 201.006 161.292C209.599 162.637 218.459 162.778 227.115 162.06C231.912 161.662 236.776 161.085 241.47 159.979C241.592 159.95 241.703 159.839 241.732 159.717C243.105 153.854 244.479 147.99 245.852 142.127C245.909 141.882 245.739 141.664 245.49 141.652C235.729 141.202 225.967 140.752 216.206 140.302C214.84 140.239 213.474 140.176 212.107 140.113C212.215 140.301 212.323 140.489 212.431 140.677C215.962 134.576 219.494 128.474 223.025 122.373C223.528 121.505 224.03 120.636 224.533 119.767C224.775 119.349 224.127 118.97 223.885 119.389C220.354 125.49 216.822 131.592 213.291 137.693C212.788 138.562 212.286 139.43 211.783 140.299C211.636 140.554 211.826 140.85 212.107 140.863C221.868 141.313 231.63 141.763 241.391 142.213C242.757 142.276 244.124 142.339 245.49 142.402C245.37 142.244 245.249 142.086 245.128 141.927C244.04 146.571 242.952 151.215 241.864 155.859C241.632 156.848 241.401 157.837 241.169 158.826C241.13 158.994 240.994 159.29 241.02 159.463C240.989 159.256 241.456 159.353 241.053 159.305C240.368 159.222 239.299 159.669 238.624 159.794C237.09 160.078 235.549 160.326 234.004 160.543C223.2 162.061 212.002 162.258 201.204 160.568C195.874 159.734 190.822 157.865 187.841 153.101C186.546 151.031 185.749 148.634 185.68 146.185C185.595 143.143 186.678 140.231 188.043 137.56C189.367 134.968 190.901 132.48 192.292 129.922C193.566 127.579 194.824 125.227 196.192 122.938C199.32 117.701 203.118 113.03 207.757 109.055C208.124 108.741 207.592 108.212 207.227 108.525Z" fill="#2C2C2C"/>
<path d="M209.077 104.603C212.923 102.696 217.636 102.635 221.53 104.441C225.425 106.248 228.421 109.885 229.448 114.053C230.355 117.733 229.77 121.655 228.468 125.214C227.166 128.773 225.178 132.035 223.202 135.27C222.238 136.849 219.168 140.813 218.77 140.879L211.837 140.407C211.837 140.407 215.118 134.869 217.374 130.464C219.375 126.557 222.761 122.313 223.521 119.001C224.503 114.723 222.726 109.72 218.937 107.505C216 105.788 212.369 105.975 208.975 106.214" fill="#8C98E9"/>
<path d="M135.802 160.675C135.441 164.144 137.96 167.25 141.429 167.611C144.898 167.972 148.004 165.453 148.365 161.984C148.726 158.515 146.207 155.409 142.738 155.048C139.269 154.687 136.164 157.206 135.802 160.675Z" stroke="white" stroke-miterlimit="10"/>
<path d="M231.93 435.582C239.779 433.154 245.146 425.818 245.075 417.596C245.071 417.114 244.321 417.113 244.325 417.596C244.393 425.481 239.264 432.528 231.731 434.859C231.271 435.001 231.467 435.726 231.93 435.582Z" fill="white"/>
<path d="M233.39 449.87C240.1 446.497 247.354 442.683 250.537 435.453C253.595 428.508 252.684 419.805 258.17 413.985C258.501 413.634 257.972 413.103 257.64 413.455C252.483 418.925 252.831 426.822 250.49 433.533C247.687 441.567 240.172 445.623 233.011 449.222C232.58 449.439 232.96 450.086 233.39 449.87Z" fill="white"/>
<path d="M264.375 414.65C260.697 418.225 262.064 423.813 262.516 428.332C262.827 431.441 262.771 434.503 261.146 437.27C259.881 439.424 258.093 441.235 256.966 443.475C256.054 445.289 255.475 447.647 256.777 449.427C258.172 451.334 260.339 450.787 262.181 449.91C266.631 447.79 270.482 444.397 273.183 440.278C276.559 435.129 278.036 428.899 277.483 422.781C277.44 422.304 276.689 422.3 276.733 422.781C277.613 432.527 273.115 442.142 264.896 447.519C263.065 448.717 259.447 451.293 257.545 449.194C255.655 447.109 257.433 443.898 258.725 442.007C259.945 440.221 261.415 438.583 262.345 436.612C263.274 434.643 263.503 432.482 263.415 430.328C263.22 425.542 260.946 419.029 264.906 415.179C265.252 414.843 264.721 414.313 264.375 414.65Z" fill="white"/>
<path d="M243.882 453.534C243.366 453.951 242.909 454.582 243.086 455.281C243.222 455.821 243.694 456.157 244.2 456.318C244.827 456.518 245.502 456.455 246.14 456.348C246.878 456.224 247.594 455.982 248.262 455.645C249.363 455.09 250.725 454.058 250.029 452.665C249.332 451.27 247.46 451.436 246.261 451.956C245.415 452.323 244.694 452.932 243.958 453.476C243.574 453.76 243.948 454.411 244.337 454.124C245.526 453.246 246.996 451.914 248.592 452.404C249.066 452.549 249.509 452.961 249.468 453.495C249.432 453.968 249.008 454.308 248.643 454.554C247.666 455.214 246.509 455.623 245.33 455.694C244.89 455.72 244.341 455.687 243.993 455.38C243.503 454.947 244.049 454.359 244.413 454.066C244.788 453.762 244.255 453.234 243.882 453.534Z" fill="white"/>
<path d="M252.646 466.4C258.477 461.106 266.656 459.971 273.106 455.689C278.982 451.789 283.101 444.595 284.202 437.698C284.277 437.226 283.555 437.023 283.479 437.499C282.314 444.791 277.85 452.096 271.422 455.854C265.141 459.525 257.617 460.875 252.116 465.87C251.757 466.194 252.289 466.724 252.646 466.4Z" fill="white"/>
<path d="M257.211 467.484C272.016 467.484 284.018 455.482 284.018 440.677C284.018 425.872 272.016 413.87 257.211 413.87C242.406 413.87 230.404 425.872 230.404 440.677C230.404 455.482 242.406 467.484 257.211 467.484Z" stroke="#2C2C2C" stroke-miterlimit="10"/>
<path d="M453.039 400.652C456.375 400.219 459.052 402.772 460.92 405.411C465.407 411.75 467.907 419.658 468.02 427.87C468.05 430.112 467.893 432.436 466.977 434.572C466.061 436.708 464.253 438.634 462.08 439.127C457.8 439.653 449.707 426.526 447.339 418.034C446.442 414.817 445.626 411.422 446.325 407.986C447.023 404.55 449.69 401.087 453.039 400.652Z" fill="#E7A5DD"/>
<path d="M464.028 463.098C467.049 446.991 464.692 430.121 457.366 415.461C457.15 415.029 456.503 415.409 456.718 415.84C463.948 430.308 466.286 447.001 463.305 462.899C463.217 463.371 463.939 463.573 464.028 463.098Z" fill="#2C2C2C"/>
<path d="M489.569 412.665C491.164 414.449 490.74 417.047 489.941 419.204C488.022 424.385 484.383 429.03 479.608 432.395C478.304 433.314 476.876 434.155 475.254 434.475C473.632 434.795 471.775 434.508 470.612 433.43C468.584 431.129 473.039 421.103 477.073 416.302C478.602 414.483 480.267 412.64 482.565 411.67C484.863 410.699 487.968 410.874 489.569 412.665Z" fill="#E7A5DD"/>
<path d="M482.036 419.379C479.016 423.444 475.928 427.456 472.94 431.545C469.996 435.574 466.801 439.667 464.586 444.161C464.373 444.592 465.02 444.973 465.234 444.54C467.449 440.046 470.644 435.953 473.588 431.924C476.575 427.835 479.664 423.823 482.684 419.758C482.971 419.369 482.321 418.995 482.036 419.379Z" fill="#2C2C2C"/>
<path d="M300.49 403.397C297.311 404.496 296.052 407.975 295.556 411.169C294.364 418.843 295.651 427.037 299.21 434.438C300.182 436.458 301.359 438.469 303.131 439.973C304.903 441.477 307.38 442.396 309.545 441.869C313.611 440.432 315.006 425.074 313.34 416.417C312.709 413.137 311.927 409.735 309.77 406.97C307.613 404.205 303.683 402.294 300.49 403.397Z" fill="#E7A5DD"/>
<path d="M319.086 463.757C309.305 450.82 303.94 434.828 303.966 418.608C303.967 418.125 303.217 418.125 303.216 418.608C303.19 434.948 308.582 451.1 318.438 464.135C318.726 464.515 319.378 464.142 319.086 463.757Z" fill="#2C2C2C"/>
<path d="M273.143 430.431C272.511 432.739 274.048 434.875 275.724 436.45C279.751 440.233 285.078 442.77 290.853 443.653C292.429 443.894 294.083 444.011 295.678 443.575C297.273 443.139 298.807 442.054 299.368 440.571C300.158 437.607 291.702 430.618 285.95 428.117C283.771 427.17 281.459 426.262 278.97 426.418C276.479 426.574 273.778 428.114 273.143 430.431Z" fill="#E7A5DD"/>
<path d="M282.484 433.722C286.999 436.015 291.552 438.23 296.048 440.559C300.479 442.854 305.163 445.094 309.149 448.13C309.533 448.422 309.907 447.771 309.528 447.482C305.542 444.446 300.858 442.206 296.427 439.911C291.931 437.582 287.377 435.367 282.863 433.074C282.433 432.856 282.053 433.503 282.484 433.722Z" fill="#2C2C2C"/>
<path d="M596.583 450.621H436.104V468.944H596.583V450.621Z" fill="#E7A5DD"/>
<path d="M458.624 451.177C458.624 457.083 458.624 462.988 458.624 468.894C458.624 469.377 459.374 469.377 459.374 468.894C459.374 462.988 459.374 457.083 459.374 451.177C459.374 450.694 458.624 450.694 458.624 451.177Z" fill="white"/>
<path d="M478.255 451.177C478.255 457.083 478.255 462.988 478.255 468.894C478.255 469.377 479.005 469.377 479.005 468.894C479.005 462.988 479.005 457.083 479.005 451.177C479.005 450.694 478.255 450.694 478.255 451.177Z" fill="white"/>
<path d="M497.886 451.177C497.886 457.083 497.886 462.988 497.886 468.894C497.886 469.377 498.636 469.377 498.636 468.894C498.636 462.988 498.636 457.083 498.636 451.177C498.636 450.694 497.886 450.694 497.886 451.177Z" fill="white"/>
<path d="M517.419 451.177C517.419 457.083 517.419 462.988 517.419 468.894C517.419 469.377 518.169 469.377 518.169 468.894C518.169 462.988 518.169 457.083 518.169 451.177C518.169 450.694 517.419 450.694 517.419 451.177Z" fill="white"/>
<path d="M536.95 451.177C536.95 457.083 536.95 462.988 536.95 468.894C536.95 469.377 537.7 469.377 537.7 468.894C537.7 462.988 537.7 457.083 537.7 451.177C537.7 450.694 536.95 450.694 536.95 451.177Z" fill="white"/>
<path d="M556.483 451.177C556.483 457.083 556.483 462.988 556.483 468.894C556.483 469.377 557.233 469.377 557.233 468.894C557.233 462.988 557.233 457.083 557.233 451.177C557.233 450.694 556.483 450.694 556.483 451.177Z" fill="white"/>
<path d="M576.017 451.177C576.017 457.083 576.017 462.988 576.017 468.894C576.017 469.377 576.767 469.377 576.767 468.894C576.767 462.988 576.767 457.083 576.767 451.177C576.767 450.694 576.017 450.694 576.017 451.177Z" fill="white"/>
<path d="M117.883 410.201C124.649 412.695 131.993 409.84 137.249 405.405C143.277 400.319 147.231 393.346 152.523 387.583C155.474 384.37 158.845 381.551 162.89 379.833C163.333 379.645 162.951 378.999 162.511 379.185C148.474 385.145 144.43 402.772 130.504 408.77C126.565 410.467 122.161 410.981 118.081 409.477C117.629 409.31 117.433 410.035 117.883 410.201Z" fill="white"/>
<path d="M184.463 380.608C183.062 393.373 171.705 401.474 161.209 406.932C150.59 412.453 138.591 417.079 131.327 427.135C128.489 431.064 126.167 437.003 129.44 441.379C132.179 445.041 137.34 445.304 141.448 444.373C146.546 443.217 151.188 440.108 155.17 436.833C159.722 433.089 163.69 428.705 167.727 424.429C176.531 415.103 188.379 403.621 202.446 406.993C202.915 407.105 203.115 406.382 202.645 406.27C191.284 403.547 180.903 410.525 173.022 417.983C164.726 425.834 157.802 435.593 147.571 441.13C143.268 443.459 137.575 445.377 132.824 443.161C126.646 440.279 128.428 432.725 131.501 428.187C138.485 417.874 150.767 413.187 161.387 407.684C172.227 402.067 183.769 393.756 185.212 380.609C185.266 380.129 184.515 380.133 184.463 380.608Z" fill="white"/>
<path d="M202.646 423.423C197.343 422.344 191.837 422.384 186.564 423.624C181.164 424.894 176.421 427.458 172.199 431.023C163.054 438.746 156.373 448.844 147.814 457.149C143.041 461.781 137.669 465.863 131.442 468.319C130.998 468.494 131.191 469.22 131.641 469.042C142.156 464.895 149.976 456.471 157.178 448.073C164.651 439.358 172.378 429.006 183.685 425.221C189.706 423.205 196.234 422.882 202.446 424.146C202.918 424.242 203.119 423.519 202.646 423.423Z" fill="white"/>
<path d="M164.475 469.352C166.731 466.178 169.354 463.283 172.308 460.745C173.822 459.444 175.419 458.241 177.087 457.144C178.824 456.002 180.739 454.718 182.86 454.51C186.637 454.14 188.782 458.099 188.196 461.439C187.605 464.811 185.097 467.046 182.228 468.586C181.803 468.814 182.181 469.462 182.607 469.234C185.091 467.901 187.184 466.199 188.31 463.549C189.314 461.186 189.31 458.477 187.887 456.27C183.9 450.088 175.782 456.831 172.086 459.952C168.957 462.595 166.198 465.637 163.827 468.973C163.547 469.367 164.197 469.742 164.475 469.352Z" fill="white"/>
<path d="M202.546 468.519C199.57 468.519 196.595 468.519 193.619 468.519C186.516 468.519 179.413 468.519 172.31 468.519C163.677 468.519 155.044 468.519 146.411 468.519C138.979 468.519 131.547 468.519 124.115 468.519C121.65 468.519 119.185 468.519 116.72 468.519C115.957 468.519 115.195 468.519 114.432 468.519C114.141 468.519 113.47 468.387 113.205 468.519C113.172 468.536 113.09 468.519 113.05 468.519C113.175 468.644 113.3 468.769 113.425 468.894C113.425 465.918 113.425 462.943 113.425 459.967C113.425 452.864 113.425 445.761 113.425 438.658C113.425 430.025 113.425 421.392 113.425 412.759C113.425 405.327 113.425 397.895 113.425 390.463C113.425 387.998 113.425 385.533 113.425 383.068C113.425 382.305 113.425 381.543 113.425 380.78C113.425 380.489 113.557 379.818 113.425 379.553C113.408 379.52 113.425 379.438 113.425 379.398C113.3 379.523 113.175 379.648 113.05 379.773C116.026 379.773 119.001 379.773 121.977 379.773C129.08 379.773 136.183 379.773 143.286 379.773C151.919 379.773 160.552 379.773 169.185 379.773C176.617 379.773 184.049 379.773 191.481 379.773C193.946 379.773 196.411 379.773 198.876 379.773C199.639 379.773 200.401 379.773 201.164 379.773C201.455 379.773 202.126 379.905 202.391 379.773C202.424 379.756 202.506 379.773 202.546 379.773C202.421 379.648 202.296 379.523 202.171 379.398C202.171 382.374 202.171 385.349 202.171 388.325C202.171 395.428 202.171 402.531 202.171 409.634C202.171 418.267 202.171 426.9 202.171 435.533C202.171 442.965 202.171 450.397 202.171 457.829C202.171 460.294 202.171 462.759 202.171 465.224C202.171 466.336 201.982 467.639 202.171 468.739C202.179 468.787 202.171 468.844 202.171 468.894C202.171 469.377 202.921 469.377 202.921 468.894C202.921 465.918 202.921 462.943 202.921 459.967C202.921 452.864 202.921 445.761 202.921 438.658C202.921 430.025 202.921 421.392 202.921 412.759C202.921 405.327 202.921 397.895 202.921 390.463C202.921 387.998 202.921 385.533 202.921 383.068C202.921 381.956 203.11 380.653 202.921 379.553C202.913 379.505 202.921 379.448 202.921 379.398C202.921 379.195 202.749 379.023 202.546 379.023C199.57 379.023 196.595 379.023 193.619 379.023C186.516 379.023 179.413 379.023 172.31 379.023C163.677 379.023 155.044 379.023 146.411 379.023C138.979 379.023 131.547 379.023 124.115 379.023C121.65 379.023 119.185 379.023 116.72 379.023C115.608 379.023 114.305 378.834 113.205 379.023C113.157 379.031 113.1 379.023 113.05 379.023C112.847 379.023 112.675 379.195 112.675 379.398C112.675 382.374 112.675 385.349 112.675 388.325C112.675 395.428 112.675 402.531 112.675 409.634C112.675 418.267 112.675 426.9 112.675 435.533C112.675 442.965 112.675 450.397 112.675 457.829C112.675 460.294 112.675 462.759 112.675 465.224C112.675 466.336 112.486 467.639 112.675 468.739C112.683 468.787 112.675 468.844 112.675 468.894C112.675 469.097 112.847 469.269 113.05 469.269C116.026 469.269 119.001 469.269 121.977 469.269C129.08 469.269 136.183 469.269 143.286 469.269C151.919 469.269 160.552 469.269 169.185 469.269C176.617 469.269 184.049 469.269 191.481 469.269C193.946 469.269 196.411 469.269 198.876 469.269C199.988 469.269 201.291 469.458 202.391 469.269C202.439 469.261 202.496 469.269 202.546 469.269C203.029 469.269 203.03 468.519 202.546 468.519Z" fill="#2C2C2C"/>
<path d="M155.311 275.561C155.196 268.917 155.074 262.218 153.608 255.737C152.142 249.256 150.935 241.727 143.225 237.378C137.343 233.966 129.713 233.997 123.672 237.119C117.631 240.24 113.259 246.251 111.757 252.882C111.098 255.789 110.957 258.787 110.482 261.729C110.007 264.672 109.151 267.648 107.282 269.97C106.619 270.794 105.785 271.664 105.873 272.719C105.946 273.594 106.646 274.275 107.342 274.81C109.333 276.342 111.661 277.396 114.065 278.124C119.19 279.677 124.625 279.781 129.98 279.873C136.902 279.992 143.826 280.11 150.747 279.948C152.182 279.914 153.82 279.769 154.683 278.621C155.32 277.773 155.329 276.623 155.311 275.561Z" fill="#2C2C2C"/>
<path d="M137.702 272.007C137.702 272.395 137.702 285.462 137.702 285.462H122.321V267.54L137.702 272.007Z" fill="#F6C2A1"/>
<path d="M138.902 276.275C138.902 276.275 148.807 274.743 148.819 263.744C148.823 259.983 148.791 255.999 148.044 249.003C147.24 241.481 141.593 238.375 133.544 238.539L132.744 238.555C124.13 239.204 118.715 243.875 119.625 251.944L120.591 259.717C120.591 259.717 119.883 276.688 138.892 276.287" fill="#F6C2A1"/>
<path d="M145.815 257.264C145.85 257.879 145.35 258.416 144.698 258.463C144.048 258.51 143.491 258.052 143.456 257.437C143.421 256.822 143.921 256.284 144.571 256.237C145.223 256.189 145.78 256.649 145.815 257.264Z" fill="#2C2C2C"/>
<path d="M134.909 258.023C134.944 258.638 134.444 259.175 133.792 259.222C133.142 259.27 132.585 258.811 132.55 258.196C132.515 257.581 133.015 257.044 133.666 256.996C134.317 256.948 134.874 257.408 134.909 258.023Z" fill="#2C2C2C"/>
<path d="M129.957 254.568C131.071 253.828 132.598 253.759 133.774 254.397" stroke="#2C2C2C" stroke-miterlimit="10" stroke-linecap="round" stroke-linejoin="round"/>
<path d="M142.187 254.089C143.301 253.349 144.828 253.28 146.004 253.918" stroke="#2C2C2C" stroke-miterlimit="10" stroke-linecap="round" stroke-linejoin="round"/>
<path d="M141.888 249.751C142.92 249.562 143.986 249.558 145.019 249.74" stroke="#2C2C2C" stroke-width="3" stroke-miterlimit="10" stroke-linecap="round" stroke-linejoin="round"/>
<path d="M130.012 250.937C131.044 250.748 132.11 250.744 133.143 250.926" stroke="#2C2C2C" stroke-width="3" stroke-miterlimit="10" stroke-linecap="round" stroke-linejoin="round"/>
<path d="M121.679 260.309C125.874 260.956 126.895 252.938 134.172 249.404C138.098 247.497 141.33 241.796 142.186 237.414C142.186 237.414 132.584 232.1 124.771 237.597C116.958 243.094 116.478 253.112 116.478 253.112L121.679 260.309Z" fill="#2C2C2C"/>
<path d="M122.762 258.773C121.473 258.068 119.895 257.742 118.572 258.371C117.216 259.016 116.372 260.641 116.489 262.206C116.606 263.771 117.622 265.198 118.974 265.852C120.326 266.507 121.958 266.41 123.286 265.701L122.762 258.773Z" fill="#F6C2A1"/>
<path d="M121.989 262.289C121.817 261.59 121.27 260.99 120.65 260.648C119.883 260.223 119 260.205 118.219 260.603C118.039 260.695 117.987 260.949 118.085 261.116C118.192 261.299 118.417 261.343 118.598 261.25C119.164 260.962 119.785 261.014 120.311 261.318C120.559 261.461 120.765 261.637 120.952 261.867C121.096 262.044 121.211 262.267 121.266 262.488C121.381 262.957 122.104 262.759 121.989 262.289Z" fill="#ED796A"/>
<path d="M138.784 276.056C135.917 276.379 132.996 275.462 130.855 273.519C130.498 273.195 129.966 273.724 130.325 274.049C132.603 276.116 135.722 277.15 138.784 276.806C139.258 276.753 139.264 276.002 138.784 276.056Z" fill="#ED796A"/>
<path d="M138.591 256.986C138.73 257.732 138.869 258.479 139.008 259.225C139.08 259.609 139.151 259.993 139.223 260.377C139.282 260.691 139.34 260.997 139.618 261.192C139.831 261.341 140.094 261.375 140.349 261.367C140.453 261.364 140.9 261.279 140.942 261.42C140.97 261.514 140.73 261.772 140.689 261.826C140.588 261.958 140.486 262.089 140.385 262.22C140.144 262.532 139.903 262.843 139.662 263.155C139.371 263.532 139.898 264.067 140.192 263.685C140.445 263.357 140.699 263.029 140.953 262.701C141.174 262.415 141.449 262.13 141.598 261.799C141.878 261.174 141.445 260.657 140.813 260.604C140.631 260.589 140.19 260.711 140.046 260.582C139.939 260.486 139.934 260.113 139.91 259.986C139.87 259.773 139.831 259.559 139.791 259.346C139.632 258.493 139.473 257.64 139.314 256.787C139.226 256.313 138.503 256.513 138.591 256.986Z" fill="#2C2C2C"/>
<path d="M134.116 264.742C134.258 264.503 134.463 264.28 134.734 264.217C135.059 264.141 135.386 264.308 135.677 264.469C136.737 265.056 137.798 265.643 138.858 266.229L139.164 266.909C138.631 267.683 137.78 268.249 136.848 268.366C135.916 268.483 134.92 268.121 134.336 267.384C133.753 266.648 133.638 265.55 134.116 264.742Z" fill="#ED796A"/>
<path d="M142.867 339.416C149.133 340.833 154.789 344.302 158.899 349.24C159.208 349.611 159.736 349.078 159.429 348.71C155.245 343.683 149.445 340.136 143.066 338.693C142.596 338.586 142.395 339.309 142.867 339.416Z" fill="#26244A"/>
<path d="M77.2392 473.278C77.2392 473.278 75.4682 461.612 89.2302 456.82L86.3752 446.77L118.285 439.614L125.233 463.89L77.2392 473.278Z" fill="#8C98E9"/>
<path d="M81.9399 459.224C84.4919 459.755 86.9969 460.489 89.4319 461.42C89.8829 461.593 90.0779 460.868 89.6309 460.697C87.1959 459.766 84.6919 459.032 82.1389 458.501C81.6679 458.402 81.4669 459.125 81.9399 459.224Z" fill="#2C2C2C"/>
<path d="M84.8774 457.57C87.1424 458.383 89.4064 459.195 91.6714 460.008C92.1264 460.171 92.3224 459.447 91.8704 459.285C89.6064 458.472 87.3414 457.66 85.0764 456.848C84.6214 456.683 84.4254 457.408 84.8774 457.57Z" fill="#2C2C2C"/>
<path d="M22.2129 451.688C22.2129 451.688 27.1909 440.99 41.3069 444.611L44.4879 434.659L75.0289 446.35L67.3879 470.417L22.2129 451.688Z" fill="#8C98E9"/>
<path d="M33.9219 442.598C35.7319 444.429 37.3949 446.399 38.8889 448.496C39.1669 448.886 39.8179 448.512 39.5369 448.118C38.0059 445.969 36.3079 443.944 34.4519 442.069C34.1119 441.724 33.5819 442.255 33.9219 442.598Z" fill="#2C2C2C"/>
<path d="M37.2247 442.769C38.6617 444.699 40.0987 446.628 41.5357 448.558C41.8207 448.941 42.4717 448.567 42.1837 448.179C40.7467 446.249 39.3097 444.32 37.8727 442.39C37.5867 442.008 36.9357 442.382 37.2247 442.769Z" fill="#2C2C2C"/>
<path d="M92.2433 392.627L75.9714 451.15C75.3744 451.128 41.8604 438.472 41.8604 438.472L65.2553 365.246L101.199 358.102L92.2433 392.627Z" fill="#2C2C2C"/>
<path d="M120.626 339.095L121.319 350.867C121.319 350.867 79.4902 353.269 72.1982 356.307C64.9062 359.345 62.6532 363.412 63.2602 374.35C63.8682 385.288 85.0272 450.314 85.0272 450.314L123.311 444.391L104.455 387.834L148.767 387.859C156.385 387.863 163.619 384.01 167.456 377.428C169.562 373.816 170.812 369.2 169.825 363.48C168.379 355.1 159.639 339.873 159.639 339.873L120.626 339.095Z" fill="#2C2C2C"/>
<path d="M123.588 444.677C112.393 446.409 101.198 448.141 90.0029 449.873C88.4359 450.115 86.8699 450.358 85.3029 450.6C85.4569 450.687 85.6099 450.775 85.7639 450.862C84.7119 447.367 83.6599 443.872 82.6069 440.377C80.3119 432.755 78.0169 425.132 75.7219 417.51C73.4679 410.025 71.2149 402.54 68.9609 395.054C68.0339 391.976 67.1409 388.885 66.1739 385.819C65.1989 382.728 64.4179 379.57 63.8969 376.37C63.2119 372.167 62.5869 366.938 64.6629 363.011C65.1109 362.163 65.7049 361.434 66.4559 360.839C66.8339 360.539 66.2999 360.012 65.9259 360.309C62.7219 362.849 62.4369 367.61 62.6059 371.369C62.7949 375.566 63.6539 379.742 64.7809 383.78C65.5919 386.686 66.5239 389.565 67.3939 392.453C69.5339 399.561 71.6739 406.668 73.8139 413.776C76.2179 421.759 78.6209 429.742 81.0239 437.725C81.9089 440.665 82.7949 443.606 83.6799 446.546C84.1009 447.945 84.3859 449.527 84.9809 450.866C85.0079 450.926 85.0209 450.997 85.0399 451.061C85.1029 451.272 85.2959 451.355 85.5009 451.323C96.6959 449.591 107.891 447.859 119.086 446.127C120.653 445.885 122.219 445.642 123.786 445.4C124.263 445.326 124.061 444.604 123.588 444.677Z" fill="#8C98E9"/>
<path d="M146.34 349.877C130.813 350.009 115.3 350.936 99.8675 352.656C99.3935 352.709 99.3875 353.459 99.8675 353.406C115.3 351.686 130.813 350.759 146.34 350.627C146.822 350.623 146.823 349.873 146.34 349.877Z" fill="#8C98E9"/>
<path d="M166.181 337.066C165.962 331.705 163.07 303.348 159.163 293.4C155.256 283.452 138.623 282.183 138.188 282.189C131.888 285.801 123.938 287.006 122.211 283.201C122.211 283.201 117.264 284.073 114.913 284.953C112.172 285.979 105.187 288.41 103.228 295.364C101.269 302.318 97.532 324.439 97.532 324.439L79.766 327.271L74.208 344.523C74.208 344.523 102.641 346.028 105.776 344.461C108.911 342.894 113.122 341.522 114.983 336.429C115.039 336.276 115.096 336.116 115.154 335.952L116.171 338.902C116.432 340.583 117.879 341.823 119.58 341.823H140.584C143.834 344.903 149.556 349.393 155.777 349.966C165.357 350.849 166.4 342.427 166.181 337.066Z" fill="white"/>
<path d="M81.3999 327.666L71.5139 328.022C71.5139 328.022 65.8049 326.432 62.6329 326.644C59.4609 326.857 57.5649 327.968 55.9869 328.911C54.4089 329.854 51.2829 332.865 53.1219 334.386C54.3789 335.426 55.4579 334.189 57.2709 332.818C59.0839 331.447 62.5779 330.958 62.5779 330.958C62.5779 330.958 58.5789 336.464 59.8979 339.771C59.8979 339.771 60.6659 341.779 63.1419 340.133C63.1419 340.133 64.4509 343.228 67.1099 341.228C67.1099 341.228 67.9509 337.7 69.1439 335.801L69.9209 334.9C69.9209 334.9 69.1879 339.69 69.9939 340.702C70.7989 341.714 71.8909 342.361 72.8109 341.412C73.7319 340.462 73.8779 338.663 74.8299 337.217C74.8299 337.217 76.7379 337.622 77.5709 338.019C81.3189 339.807 81.9529 338.019 81.9529 338.019C81.9529 338.019 81.9119 336.259 81.7029 333.297C81.4649 329.934 81.3999 327.666 81.3999 327.666Z" fill="#F6C2A1"/>
<path d="M61.326 333.758C61.805 331.79 63.368 330.171 65.323 329.634C65.788 329.506 65.591 328.783 65.124 328.911C62.927 329.515 61.142 331.343 60.603 333.559C60.489 334.028 61.212 334.228 61.326 333.758Z" fill="#ED796A"/>
<path d="M63.9065 340.08C64.0195 336.546 65.6055 333.171 68.2355 330.812C68.5955 330.489 68.0635 329.96 67.7055 330.282C64.9305 332.771 63.2755 336.357 63.1565 340.08C63.1405 340.563 63.8905 340.563 63.9065 340.08Z" fill="#ED796A"/>
<path d="M75.943 330.948C73.887 331.007 71.912 331.952 70.651 333.594C69.434 335.179 68.895 337.401 69.44 339.348C69.673 340.181 70.17 340.992 70.985 341.355C71.682 341.666 72.583 341.645 73.174 341.117C73.881 340.486 73.797 339.525 74.119 338.71C74.554 337.612 75.885 337.726 76.798 338.083C77.907 338.517 78.946 339.287 80.195 339.179C81.091 339.102 81.897 338.636 82.187 337.756C82.338 337.296 81.614 337.1 81.464 337.557C81.192 338.384 80.153 338.548 79.408 338.376C78.52 338.171 77.749 337.637 76.899 337.324C75.631 336.858 73.991 337.016 73.428 338.419C73.162 339.082 73.243 340.047 72.675 340.55C71.941 341.2 70.886 340.596 70.47 339.895C69.569 338.379 69.963 336.187 70.79 334.733C71.841 332.885 73.83 331.759 75.941 331.699C76.425 331.685 76.427 330.935 75.943 330.948Z" fill="#ED796A"/>
<path d="M143.925 323.249C142.771 315.229 143.29 307.083 142.136 299.062C142.068 298.586 141.345 298.789 141.413 299.261C142.567 307.281 142.048 315.427 143.202 323.448C143.27 323.924 143.993 323.721 143.925 323.249Z" fill="#2C2C2C"/>
<path d="M143.532 323.612L134.429 319.739C134.429 319.739 129.934 315.877 126.971 314.723C124.008 313.569 121.82 313.771 119.991 313.956C118.162 314.141 114.054 315.54 115.073 317.698C115.77 319.173 117.272 318.511 119.495 318.039C121.719 317.567 125.09 318.607 125.09 318.607C125.09 318.607 119.133 321.896 118.923 325.45C118.923 325.45 118.766 327.594 121.707 327.155C121.707 327.155 121.579 330.513 124.835 329.83C124.835 329.83 127.094 326.992 128.98 325.779L130.066 325.293C130.066 325.293 127.37 329.319 127.67 330.577C127.97 331.835 128.683 332.884 129.92 332.415C131.157 331.946 131.239 329.741 132.715 328.835C132.715 328.835 134.035 330.601 134.581 331.344C135.127 332.087 138.774 335.065 138.774 335.065C138.774 335.065 140.347 331.611 141.414 328.84C142.628 325.693 143.532 323.612 143.532 323.612Z" fill="#F6C2A1"/>
<path d="M122.75 320.633C124.016 319.064 126.102 318.225 128.103 318.565C128.575 318.645 128.778 317.922 128.302 317.842C126.049 317.46 123.662 318.315 122.22 320.103C121.919 320.475 122.447 321.009 122.75 320.633Z" fill="#ED796A"/>
<path d="M122.407 327.461C124.002 324.311 126.863 321.901 130.247 320.885C130.708 320.746 130.512 320.022 130.048 320.162C126.487 321.231 123.441 323.764 121.759 327.083C121.542 327.512 122.189 327.892 122.407 327.461Z" fill="#ED796A"/>
<path d="M157.123 328.429C152.939 325.942 148.348 324.378 143.631 323.251C143.415 323.2 143.25 323.32 143.17 323.513C141.063 328.602 138.956 333.69 136.849 338.779C136.665 339.224 137.39 339.419 137.572 338.978C139.679 333.889 141.786 328.801 143.893 323.712C143.739 323.799 143.586 323.887 143.432 323.974C148.088 325.087 152.614 326.621 156.744 329.076C157.16 329.324 157.538 328.676 157.123 328.429Z" fill="#2C2C2C"/>
<path d="M117.347 340.064C111.095 327.063 108.468 312.501 109.751 298.134C109.794 297.653 109.044 297.656 109.001 298.134C107.707 312.635 110.391 327.324 116.7 340.443C116.909 340.877 117.556 340.497 117.347 340.064Z" fill="#2C2C2C"/>
<path d="M118.865 279.295L119.266 283.824C119.313 284.349 119.582 284.83 120.006 285.143L127.136 290.41C127.692 290.821 128.431 290.885 129.05 290.578L140.144 285.066C140.77 284.755 141.167 284.116 141.167 283.416V279.559C141.167 278.558 140.368 277.74 139.367 277.718L120.741 277.291C119.644 277.266 118.768 278.201 118.865 279.295Z" fill="white"/>
<path d="M88.9828 358.102H53.0368C51.5808 358.102 50.2618 357.246 49.6688 355.916L35.1238 323.306C34.0358 320.867 35.8208 318.116 38.4918 318.116H74.4378C75.8938 318.116 77.2128 318.972 77.8058 320.302L92.3508 352.912C93.4388 355.351 91.6538 358.102 88.9828 358.102Z" fill="#E7A5DD"/>
<path d="M52.1211 358.102H92.9541L114.782 350.706C115.504 350.395 115.34 348.983 114.58 348.974H73.3201L52.1211 358.102Z" fill="#E7A5DD"/>
<path d="M78.0407 321.353C82.8837 333.01 87.5467 344.763 92.6297 356.319C92.8237 356.76 93.4697 356.379 93.2777 355.94C88.2207 344.444 83.5827 332.751 78.7647 321.153C78.5817 320.714 77.8557 320.907 78.0407 321.353Z" fill="#26244A"/>
<path d="M62.5812 333.819C60.5272 333.587 58.6462 334.964 58.4022 337.114C58.3512 337.564 58.3662 338.028 58.4542 338.486C58.8732 340.659 61.0322 342.438 63.0442 342.23C65.0572 342.022 66.5502 339.824 66.1182 337.653C65.8062 336.078 64.6942 334.058 62.5812 333.819Z" fill="white"/>
<path d="M518.883 473.318C518.883 473.318 522.501 462.086 509.684 455.151L514.113 445.689L483.762 433.513L473.014 456.362L518.883 473.318Z" fill="#8C98E9"/>
<path d="M516.453 457.944C513.816 458.061 511.192 458.389 508.607 458.925C508.135 459.023 508.335 459.746 508.806 459.648C511.327 459.126 513.881 458.808 516.453 458.694C516.934 458.673 516.937 457.923 516.453 457.944Z" fill="#2C2C2C"/>
<path d="M513.72 455.854C511.354 456.293 508.989 456.732 506.623 457.171C506.149 457.259 506.35 457.982 506.822 457.894C509.187 457.455 511.553 457.016 513.918 456.577C514.393 456.489 514.192 455.766 513.72 455.854Z" fill="#2C2C2C"/>
<path d="M578.536 471.936C578.536 471.936 577.794 460.159 563.328 458.394L563.987 447.967L531.285 447.739L529.642 472.936L578.536 471.936Z" fill="#8C98E9"/>
<path d="M570.598 458.541C568.216 459.6 565.924 460.849 563.742 462.275C563.34 462.538 563.715 463.188 564.121 462.923C566.303 461.497 568.596 460.248 570.978 459.189C571.417 458.993 571.035 458.346 570.598 458.541Z" fill="#2C2C2C"/>
<path d="M567.377 457.547C565.336 458.821 563.295 460.095 561.255 461.369C560.846 461.624 561.223 462.273 561.634 462.017C563.675 460.743 565.716 459.469 567.757 458.195C568.164 457.94 567.788 457.291 567.377 457.547Z" fill="#2C2C2C"/>
<path d="M574.041 292.312L573.453 313.815C574.021 334.334 575.136 348.544 573.592 367.759C570.647 404.421 568.725 429.791 565.256 455.287L530.029 454.43C530.029 454.43 536.234 397.501 539.119 383.985L542.588 296.526L560.237 294.113L574.041 292.312Z" fill="#8C98E9"/>
<path d="M551.102 335.447C551.105 335.427 551.105 335.426 551.102 335.434V335.447Z" fill="#8C98E9"/>
<path d="M518.852 302.553L506.896 373.977L480.612 440.744L515.785 455.164C515.785 455.164 539.595 394.202 541.826 384.105C544.016 374.198 550.988 335.864 551.102 335.435L551.573 310.896L518.852 302.553Z" fill="#8C98E9"/>
<path d="M556.693 317.888C555.648 330.302 553.077 342.58 550.05 354.646C546.768 367.729 542.823 380.649 538.397 393.389C536.362 399.244 534.22 405.063 531.945 410.83C530.882 413.525 529.728 416.182 528.728 418.901C526.359 425.341 523.99 431.78 521.621 438.22C519.555 443.835 517.49 449.45 515.424 455.065C515.578 454.978 515.731 454.89 515.885 454.803C505.593 450.584 495.302 446.364 485.01 442.145C483.577 441.558 482.145 440.97 480.712 440.383C480.266 440.2 480.071 440.925 480.513 441.106C490.805 445.325 501.096 449.545 511.388 453.764C512.821 454.351 514.253 454.939 515.686 455.526C515.884 455.607 516.084 455.435 516.147 455.264C517.887 450.535 519.627 445.805 521.367 441.075C523.899 434.193 526.43 427.311 528.962 420.429C531.775 412.782 534.961 405.283 537.704 397.606C542.221 384.966 546.248 372.141 549.664 359.159C552.874 346.961 555.627 334.567 557.038 322.019C557.193 320.644 557.327 319.267 557.443 317.888C557.483 317.406 556.733 317.409 556.693 317.888Z" fill="#2C2C2C"/>
<path d="M554.966 224.872C554.992 225.283 555.871 239.114 555.871 239.114L538.573 240.208L537.249 219.369L554.966 224.872Z" fill="#AB5A44"/>
<path d="M555.925 229.568C555.925 229.568 566.325 227.282 565.598 215.639C565.35 211.658 565.048 207.444 563.784 200.089C562.426 192.181 556.229 189.272 547.705 189.986L546.858 190.057C537.767 191.322 532.34 196.629 533.848 205.108L535.395 213.27C535.395 213.27 535.786 231.28 555.916 229.581" fill="#AB5A44"/>
<path d="M559.927 209.617C560.006 210.266 559.511 210.867 558.823 210.961C558.136 211.055 557.515 210.607 557.437 209.958C557.359 209.309 557.853 208.707 558.539 208.613C559.227 208.519 559.848 208.968 559.927 209.617Z" fill="#2C2C2C"/>
<path d="M547.806 210.32C547.885 210.969 547.39 211.57 546.702 211.664C546.015 211.758 545.394 211.31 545.316 210.661C545.238 210.012 545.732 209.41 546.418 209.316C547.106 209.221 547.727 209.671 547.806 210.32Z" fill="#2C2C2C"/>
<path d="M545.17 207.515C546.206 206.743 547.637 206.541 548.827 207.079C549.011 207.162 549.23 207.132 549.34 206.944C549.434 206.783 549.391 206.515 549.205 206.431C547.782 205.788 546.054 205.926 544.791 206.867C544.629 206.988 544.546 207.191 544.656 207.38C544.751 207.54 545.007 207.637 545.17 207.515Z" fill="#2C2C2C"/>
<path d="M558.106 206.188C559.142 205.416 560.573 205.214 561.763 205.752C561.947 205.835 562.166 205.805 562.276 205.617C562.37 205.456 562.327 205.188 562.141 205.104C560.718 204.461 558.99 204.599 557.727 205.54C557.565 205.661 557.482 205.864 557.593 206.053C557.687 206.214 557.943 206.31 558.106 206.188Z" fill="#2C2C2C"/>
<path d="M558.3 203.192C558.627 203.112 558.957 203.048 559.291 203.001C559.18 203.016 559.07 203.031 558.959 203.046C559.732 202.942 560.512 202.931 561.288 203.015C561.586 203.047 561.968 202.852 562.172 202.649C562.389 202.432 562.552 202.076 562.538 201.765C562.523 201.442 562.417 201.107 562.172 200.881C562.088 200.816 562.003 200.751 561.919 200.685C561.724 200.572 561.514 200.515 561.288 200.514C560.07 200.383 558.825 200.489 557.636 200.781C557.001 200.937 556.559 201.689 556.763 202.319C556.975 202.979 557.619 203.359 558.3 203.192Z" fill="#2C2C2C"/>
<path d="M545.127 204.55C545.454 204.47 545.784 204.406 546.118 204.359C546.007 204.374 545.896 204.389 545.786 204.404C546.559 204.3 547.339 204.289 548.115 204.373C548.414 204.405 548.795 204.21 548.999 204.007C549.216 203.79 549.379 203.435 549.365 203.123C549.351 202.8 549.244 202.464 548.999 202.239C548.915 202.174 548.83 202.109 548.746 202.044C548.551 201.931 548.341 201.874 548.115 201.873C546.897 201.742 545.652 201.848 544.463 202.14C543.828 202.296 543.386 203.048 543.59 203.678C543.802 204.337 544.446 204.717 545.127 204.55Z" fill="#2C2C2C"/>
<path d="M537.634 212.124C536.22 211.465 534.525 211.225 533.164 211.98C531.769 212.754 530.984 214.53 531.213 216.179C531.442 217.828 532.615 219.27 534.093 219.872C535.571 220.474 537.295 220.263 538.655 219.423" fill="#AB5A44"/>
<path d="M537.035 215.928C536.806 215.204 536.209 214.602 535.53 214.282C534.699 213.889 533.77 213.901 532.972 214.372C532.557 214.617 532.934 215.266 533.351 215.02C533.923 214.682 534.598 214.656 535.196 214.951C535.47 215.087 535.712 215.264 535.92 215.487C536.019 215.593 536.081 215.673 536.157 215.796C536.238 215.928 536.274 216.007 536.312 216.127C536.456 216.586 537.181 216.39 537.035 215.928Z" fill="#822C29"/>
<path d="M555.152 229.194C552.175 229.72 549.016 228.922 546.65 227.038C546.276 226.74 545.742 227.268 546.12 227.568C548.714 229.634 552.085 230.493 555.352 229.916C555.826 229.834 555.625 229.111 555.152 229.194Z" fill="#822C29"/>
<path d="M554.314 209.142C554.516 209.939 554.718 210.736 554.919 211.533C555.017 211.921 555.115 212.308 555.213 212.696C555.29 212.999 555.36 213.311 555.631 213.503C555.863 213.667 556.157 213.695 556.432 213.67C556.551 213.659 557.053 213.531 557.114 213.693C557.157 213.807 556.916 214.092 556.861 214.174C556.75 214.338 556.639 214.502 556.528 214.666C556.294 215.012 556.059 215.358 555.825 215.704C555.554 216.105 556.203 216.48 556.473 216.083C556.72 215.719 556.967 215.354 557.213 214.99C557.424 214.678 557.707 214.353 557.817 213.986C558.027 213.286 557.442 212.841 556.792 212.877C556.551 212.89 556.123 213.059 556.009 212.777C555.861 212.412 555.805 211.975 555.708 211.593C555.484 210.71 555.261 209.827 555.037 208.944C554.919 208.475 554.195 208.673 554.314 209.142Z" fill="#2C2C2C"/>
<path d="M530.927 209.377C530.672 208.835 530.131 208.127 529.723 207.546C528.075 205.201 527.013 202.567 526.757 199.551C526.536 196.947 527.639 194.266 529.629 192.568C531.073 191.336 535.79 191.216 535.79 191.216C535.79 191.216 538.402 186.131 540.362 184.385C542.542 182.442 545.105 180.828 547.967 180.236C550.829 179.645 554.019 180.194 556.209 182.126C556.775 182.625 557.279 183.215 557.951 183.557C559.172 184.18 560.633 183.857 561.997 183.714C564.915 183.408 568.094 184.125 570.085 186.276C572.076 188.427 572.389 192.177 570.266 194.199C569.386 195.037 568.084 195.706 567.996 196.917C567.938 197.707 568.449 198.41 568.752 199.142C569.31 200.493 569.139 202.12 568.311 203.325C567.514 204.485 566.019 205.098 564.576 205.122L564.09 202.535C564.09 202.535 563.541 195.702 561.551 197.017C557.235 199.87 553.343 197.916 550.979 196.527C549.677 195.762 548.175 195.708 546.667 195.794C543.002 196.003 540.555 198.684 540.455 202.358C540.353 206.118 541.51 211.22 541.256 213.318C541.192 213.851 541.273 215.448 539.428 215.565C539.428 215.565 538.787 216.038 538.033 214.385C537.279 212.732 536.321 211.001 532.701 212.292L530.927 209.377Z" fill="#2C2C2C"/>
<path d="M554.622 218.636C553.159 218.973 551.697 218.059 551.33 216.613C551.211 216.146 550.488 216.344 550.607 216.812C550.823 217.662 551.356 218.408 552.086 218.893C552.884 219.422 553.894 219.572 554.821 219.359C555.292 219.251 555.093 218.528 554.622 218.636Z" fill="#822C29"/>
<path d="M591.857 271.126C591.857 271.126 596.173 280.514 596.508 283.591C596.843 286.667 596.111 294.053 586.117 292.254L576.036 284.932L571.778 275.034L591.857 271.126Z" fill="#AB5A44"/>
<path d="M495.22 264.178L516.905 275.494L530.369 257.736L519.51 238.585C519.51 238.585 512.348 238.323 506.283 248.134C503.293 252.971 495.22 264.178 495.22 264.178Z" fill="white"/>
<path d="M559.633 237.284C559.633 237.284 571.499 235.14 578.328 243.489C581.189 246.986 593.768 270.617 593.768 270.617L569.345 277.141L559.633 237.284Z" fill="white"/>
<path d="M521.957 296.89L519.708 264.278L565.02 249.397C566.789 255.038 566.257 260.96 568.026 266.601C568.818 269.127 569.816 274.615 571.344 281.189L576.638 304.669C540.757 327.039 518.141 306.143 517.968 304.456C517.625 301.128 521.957 296.89 521.957 296.89Z" fill="white"/>
<path d="M538.295 235.816C540.436 238.125 548.292 240.009 555.407 235.742C555.407 235.742 563.52 236.91 568.928 238.556L566.113 267.656C564.887 276.814 563.961 283.846 563.27 287.661L523.07 288.651L519.51 238.584L538.295 235.816Z" fill="white"/>
<path d="M517.703 240.92C521.124 243.568 523.282 247.646 523.489 251.973C523.512 252.453 524.262 252.456 524.239 251.973C524.023 247.462 521.809 243.157 518.233 240.389C517.856 240.098 517.321 240.625 517.703 240.92Z" fill="#2C2C2C"/>
<path d="M571.541 281.335C570.13 273.702 568.719 266.068 567.308 258.435C567.105 257.336 566.902 256.237 566.699 255.138C566.611 254.664 565.888 254.865 565.976 255.337C567.387 262.97 568.798 270.604 570.209 278.237C570.412 279.336 570.615 280.435 570.818 281.534C570.905 282.009 571.628 281.808 571.541 281.335Z" fill="#26244A"/>
<path d="M555.801 300.813C547.216 302.257 538.337 301.113 530.4 297.536C529.963 297.339 529.582 297.985 530.021 298.184C538.16 301.852 547.196 303.018 556 301.537C556.475 301.456 556.274 300.733 555.801 300.813Z" fill="#26244A"/>
<path d="M603.157 242.926L639.092 242.041C640.547 242.005 641.845 241.117 642.405 239.773L656.142 206.815C657.169 204.35 655.317 201.644 652.647 201.71L616.712 202.595C615.257 202.631 613.959 203.519 613.399 204.863L599.662 237.821C598.634 240.286 600.487 242.992 603.157 242.926Z" fill="#2C2C2C"/>
<path d="M640.008 242.018L599.187 243.024L577.184 236.168C576.454 235.875 576.584 234.459 577.343 234.432L618.59 233.416L640.008 242.018Z" fill="#2C2C2C"/>
<path d="M628.953 218.001C631.001 217.719 632.915 219.048 633.212 221.192C633.274 221.641 633.271 222.105 633.194 222.565C632.829 224.748 630.715 226.579 628.697 226.421C626.68 226.263 625.133 224.103 625.511 221.921C625.785 220.337 626.847 218.291 628.953 218.001Z" fill="white"/>
<path d="M617.408 240.898C618.496 239.569 618.883 236.075 619.021 234.595C619.16 233.115 618.586 231.357 617.167 230.921C615.86 230.519 614.458 231.479 613.842 232.7C613.226 233.921 613.182 235.339 613.056 236.702C612.93 238.065 612.671 239.505 611.747 240.513C609.911 242.517 606.558 241.827 604.14 243.067C602.327 243.997 601.223 245.958 600.825 247.959C600.427 249.96 600.749 252.779 599.74 254.771L613.685 259.429C616.595 252.78 617.284 253.209 618.823 251.973C620.362 250.736 623.391 249.488 625.024 248.378C628.803 245.809 630.724 240.778 629.622 236.334C629.35 235.236 628.787 234.058 627.71 233.716C626.583 233.358 625.172 234.148 625.049 235.325C624.882 236.938 624.794 237.641 624.79 238.825C624.786 240.009 624.468 241.788 623.722 242.126C623.722 242.126 625.63 233.479 623.5 232.118C621.37 230.756 620.937 231.835 620.114 233.014C619.291 234.193 619.621 238.081 618.782 239.841C617.945 241.6 617.408 240.898 617.408 240.898Z" fill="#AB5A44"/>
<path d="M601.319 252.025L614.346 257.93L601.41 291.357C600.446 293.848 598.676 295.945 596.382 297.314C590.822 300.631 583.632 298.924 580.157 293.462L576.038 284.932L585.801 279.03L601.319 252.025Z" fill="#AB5A44"/>
<path d="M600.158 253.663C595.213 262.474 589.884 271.1 585.209 280.059C585.044 280.375 583.87 282.117 584.678 282.332C585.145 282.456 585.344 281.733 584.877 281.609C585.089 281.665 584.976 281.987 585.144 281.921C585.171 281.91 585.178 281.791 585.201 281.768C585.308 281.658 585.372 281.396 585.44 281.257C585.719 280.683 586.023 280.119 586.325 279.557C587.246 277.845 588.201 276.15 589.157 274.458C591.719 269.924 594.322 265.413 596.91 260.893C598.215 258.614 599.52 256.333 600.805 254.043C601.042 253.62 600.395 253.242 600.158 253.663Z" fill="#822C29"/>
<path d="M526.32 295.13C527.898 294.452 531.363 295.047 532.823 295.323C534.283 295.599 535.814 296.636 535.841 298.121C535.866 299.488 534.556 300.57 533.212 300.824C531.868 301.078 530.493 300.728 529.149 300.472C527.804 300.216 526.348 300.066 525.124 300.675C522.69 301.885 522.426 305.297 520.565 307.278C519.17 308.763 516.98 309.281 514.947 309.11C512.915 308.938 507.239 306.409 505.347 305.645L507.97 289.456C512.236 291.273 514.456 291.84 516.07 290.703C517.684 289.567 519.722 287.001 521.24 285.739C524.755 282.818 530.121 282.364 534.086 284.652C535.065 285.217 536.042 286.085 536.073 287.214C536.105 288.396 534.956 289.534 533.79 289.325C532.193 289.04 531.494 288.929 530.355 288.606C529.216 288.282 527.418 288.095 526.887 288.719C526.887 288.719 535.724 289.278 536.443 291.701C537.162 294.124 536.006 294.242 534.645 294.707C533.284 295.172 529.639 293.779 527.716 294.098C525.794 294.419 526.32 295.13 526.32 295.13Z" fill="#AB5A44"/>
<path d="M485.718 280.471L496.28 264.73L513.33 273.628L502.145 288.241L485.718 280.471Z" fill="#AB5A44"/>
<path d="M511.719 290.872L487.571 278.183C487.571 278.183 482.017 283.441 484.245 289.608C487.164 297.689 505.575 305.64 505.575 305.64L511.719 290.872Z" fill="#AB5A44"/>
<path d="M505.477 287.52C501.933 285.22 498.388 282.92 494.844 280.619C494.438 280.355 494.062 281.004 494.466 281.267C498.01 283.567 501.555 285.868 505.099 288.168C505.505 288.431 505.881 287.782 505.477 287.52Z" fill="#822C29"/>
<path d="M565.858 454.789C555.274 454.818 544.691 454.847 534.107 454.876C532.608 454.88 531.108 454.884 529.609 454.888C529.127 454.889 529.126 455.639 529.609 455.638C540.192 455.609 550.776 455.58 561.359 455.551C562.858 455.547 564.358 455.543 565.857 455.539C566.341 455.537 566.342 454.787 565.858 454.789Z" fill="#2C2C2C"/>
<path d="M536.582 115.172H608.465C610.315 115.172 611.815 113.672 611.815 111.822V66.5C611.815 64.65 610.315 63.15 608.465 63.15H536.582C534.732 63.15 533.232 64.65 533.232 66.5V111.821C533.232 113.672 534.732 115.172 536.582 115.172Z" fill="white"/>
<path d="M561.937 73.076C555.104 73.076 548.27 73.076 541.437 73.076C540.633 73.076 540.631 74.326 541.437 74.326C548.27 74.326 555.104 74.326 561.937 74.326C562.741 74.326 562.742 73.076 561.937 73.076Z" fill="#8C98E9"/>
<path d="M601.833 86.64C595.936 82.9 588.026 83.67 582.903 88.373C581.482 89.677 580.245 91.177 578.747 92.397C576.948 93.861 574.818 94.604 572.511 94.741C568.048 95.006 563.782 93.311 559.399 92.785C554.567 92.205 549.643 92.928 545.149 94.775C544.415 95.077 544.737 96.286 545.481 95.98C549.465 94.343 553.753 93.597 558.056 93.906C562.292 94.21 566.329 95.766 570.574 95.989C574.385 96.19 577.725 95.106 580.522 92.495C581.885 91.223 583.092 89.784 584.537 88.6C585.981 87.418 587.671 86.565 589.464 86.058C593.423 84.939 597.724 85.512 601.202 87.718C601.883 88.151 602.511 87.07 601.833 86.64Z" fill="#8C98E9"/>
<path d="M601.781 95.97L603.136 95.937C604.436 95.905 605.464 94.825 605.432 93.525L605.061 78.453C605.029 77.153 603.949 76.125 602.649 76.157L601.294 76.19C599.994 76.222 598.966 77.302 598.998 78.602L599.369 93.674C599.401 94.974 600.481 96.002 601.781 95.97Z" fill="#E7A5DD"/>
<path d="M590.92 93.702L592.275 93.669C593.575 93.637 594.603 92.557 594.571 91.257L594.2 76.185C594.168 74.885 593.088 73.857 591.788 73.889L590.433 73.922C589.133 73.954 588.105 75.034 588.137 76.334L588.508 91.406C588.54 92.706 589.62 93.734 590.92 93.702Z" fill="#F9CA51"/>
<path d="M544.099 99.596L545.454 99.563C546.754 99.531 547.782 98.451 547.75 97.151L547.379 82.079C547.347 80.779 546.267 79.751 544.967 79.783L543.612 79.816C542.312 79.848 541.284 80.928 541.316 82.228L541.687 97.3C541.719 98.6 542.799 99.628 544.099 99.596Z" fill="#8C98E9"/>
<path d="M572.257 105.848L573.612 105.815C574.912 105.783 575.94 104.703 575.908 103.403L575.537 88.331C575.505 87.031 574.425 86.003 573.125 86.035L571.77 86.068C570.47 86.1 569.442 87.18 569.474 88.48L569.845 103.552C569.876 104.852 570.956 105.88 572.257 105.848Z" fill="#F9CA51"/>
<path d="M580.889 98.389L582.244 98.356C583.544 98.324 584.572 97.244 584.54 95.944L584.169 80.872C584.137 79.572 583.057 78.544 581.757 78.576L580.402 78.609C579.102 78.641 578.074 79.721 578.106 81.021L578.477 96.093C578.509 97.393 579.589 98.421 580.889 98.389Z" fill="#8C98E9"/>
<path d="M562.968 100.234L564.323 100.201C565.623 100.169 566.651 99.089 566.619 97.789L566.248 82.717C566.216 81.417 565.136 80.389 563.836 80.421L562.481 80.454C561.181 80.486 560.153 81.566 560.185 82.866L560.556 97.938C560.587 99.238 561.667 100.266 562.968 100.234Z" fill="#E7A5DD"/>
<path d="M553.913 104.095L555.268 104.062C556.568 104.03 557.596 102.95 557.564 101.65L557.193 86.578C557.161 85.278 556.081 84.25 554.781 84.282L553.426 84.315C552.126 84.347 551.098 85.427 551.13 86.727L551.501 101.799C551.533 103.099 552.613 104.127 553.913 104.095Z" fill="#F9CA51"/>
<path d="M595.649 148.576C595.612 150.189 594.274 151.467 592.661 151.431C591.048 151.394 589.77 150.056 589.807 148.443C589.844 146.83 591.182 145.552 592.795 145.588C594.408 145.624 595.686 146.962 595.649 148.576Z" fill="#8C98E9"/>
<path d="M595.448 157.402C595.411 159.015 594.073 160.293 592.46 160.257C590.847 160.22 589.569 158.882 589.605 157.269C589.642 155.656 590.98 154.378 592.593 154.414C594.206 154.451 595.484 155.788 595.448 157.402Z" fill="#8C98E9"/>
<path d="M595.246 166.228C595.209 167.841 593.871 169.119 592.258 169.083C590.645 169.046 589.367 167.708 589.403 166.095C589.44 164.482 590.778 163.204 592.391 163.24C594.005 163.277 595.283 164.615 595.246 166.228Z" fill="#8C98E9"/>
<path d="M585.987 180.857L659.936 180.725C662.332 180.721 664.27 178.775 664.266 176.379L664.19 133.78C664.186 131.384 662.24 129.446 659.844 129.45L585.895 129.582C583.499 129.586 581.561 131.532 581.565 133.928L581.641 176.527C581.646 178.923 583.592 180.861 585.987 180.857Z" stroke="white" stroke-miterlimit="10"/>
<path d="M633.689 150.516L656.472 150.476C657.704 150.474 658.701 149.473 658.699 148.241V147.979C658.697 146.747 657.696 145.75 656.464 145.752L633.681 145.793C632.449 145.795 631.452 146.796 631.454 148.028V148.29C631.456 149.521 632.456 150.518 633.689 150.516Z" fill="#E7A5DD"/>
<path d="M644.799 159.947L656.49 159.926C657.722 159.924 658.719 158.923 658.716 157.691L658.716 157.429C658.714 156.197 657.713 155.199 656.481 155.202L644.789 155.223C643.557 155.225 642.561 156.226 642.563 157.458V157.721C642.566 158.952 643.567 159.949 644.799 159.947Z" fill="#F9CA51"/>
<path d="M610.352 168.712L622.043 168.691C623.275 168.689 624.272 167.688 624.27 166.456V166.194C624.268 164.962 623.267 163.964 622.035 163.967L610.344 163.988C609.112 163.99 608.114 164.991 608.117 166.223V166.485C608.119 167.717 609.12 168.714 610.352 168.712Z" fill="#F9CA51"/>
<path d="M624.337 159.983L636.028 159.962C637.26 159.96 638.258 158.959 638.255 157.727V157.465C638.253 156.233 637.252 155.236 636.02 155.238L624.329 155.259C623.097 155.261 622.1 156.262 622.102 157.494V157.756C622.104 158.988 623.105 159.985 624.337 159.983Z" fill="#8C98E9"/>
<path d="M633.722 168.919L655.967 168.879C657.199 168.877 658.197 167.876 658.194 166.644V166.381C658.192 165.149 657.191 164.152 655.959 164.154L633.714 164.194C632.482 164.196 631.485 165.197 631.487 166.429L631.488 166.691C631.489 167.924 632.489 168.921 633.722 168.919Z" fill="#E7A5DD"/>
<path d="M600.628 150.575L623.411 150.535C624.643 150.533 625.64 149.532 625.638 148.3V148.038C625.636 146.806 624.635 145.808 623.403 145.811L600.62 145.852C599.388 145.854 598.391 146.855 598.393 148.087V148.349C598.395 149.58 599.396 150.577 600.628 150.575Z" fill="#E7A5DD"/>
<path d="M581.77 139.837C603.111 139.837 624.451 139.837 645.792 139.837C651.928 139.837 658.064 139.837 664.201 139.837C665.005 139.837 665.007 138.587 664.201 138.587C642.86 138.587 621.52 138.587 600.179 138.587C594.043 138.587 587.907 138.587 581.77 138.587C580.966 138.587 580.965 139.837 581.77 139.837Z" fill="white"/>
<path d="M593.766 134.497C593.766 135.506 592.948 136.324 591.939 136.324C590.93 136.324 590.112 135.506 590.112 134.497C590.112 133.488 590.93 132.67 591.939 132.67C592.948 132.67 593.766 133.488 593.766 134.497Z" fill="white"/>
<path d="M599.125 134.497C599.125 135.506 598.307 136.324 597.298 136.324C596.289 136.324 595.471 135.506 595.471 134.497C595.471 133.488 596.289 132.67 597.298 132.67C598.307 132.67 599.125 133.488 599.125 134.497Z" fill="white"/>
<path d="M604.483 134.497C604.483 135.506 603.665 136.324 602.656 136.324C601.647 136.324 600.829 135.506 600.829 134.497C600.829 133.488 601.647 132.67 602.656 132.67C603.665 132.67 604.483 133.488 604.483 134.497Z" fill="white"/>
<path d="M607.585 312.847C608.078 318.195 608.65 323.642 610.469 328.73C612.215 333.614 615.15 337.656 619.494 340.534C621.939 342.154 624.586 343.438 627.055 345.02C629.364 346.5 631.439 348.288 633.299 350.301C636.897 354.195 639.673 358.798 641.976 363.553C644.604 368.979 646.619 374.681 648.35 380.449C648.488 380.91 649.212 380.714 649.073 380.25C646.155 370.526 642.439 360.634 636.162 352.537C632.944 348.385 629.103 345.248 624.552 342.657C621.871 341.131 619.113 339.657 616.844 337.534C614.879 335.695 613.355 333.453 612.214 331.023C609.561 325.373 608.9 318.986 608.334 312.846C608.292 312.371 607.541 312.366 607.585 312.847Z" fill="white"/>
<path d="M628.05 312.856C627.94 318.91 629.986 324.931 633.893 329.577C637.627 334.017 642.999 336.313 648.612 337.28C649.084 337.361 649.287 336.639 648.811 336.557C643.447 335.633 638.317 333.514 634.671 329.336C630.728 324.819 628.691 318.822 628.8 312.856C628.809 312.373 628.059 312.373 628.05 312.856Z" fill="white"/>
<path d="M596.633 353.399C599.65 356.859 604.084 358.5 608.37 359.775C613.108 361.185 618.13 362.127 622.5 364.533C627.655 367.372 630.043 372.497 631.63 377.932C633.529 384.435 635.143 391.086 636.466 397.729C637.855 404.706 638.825 411.898 638.456 419.028C638.284 422.35 637.645 425.838 635.48 428.481C633.571 430.812 630.661 432.195 627.647 431.424C620.767 429.664 619.466 421.761 620.152 415.766C620.846 409.704 623.392 403.238 621.601 397.146C618.728 387.37 606.523 381.461 596.897 382.536C596.423 382.589 596.417 383.34 596.897 383.286C602.036 382.712 607.306 384.141 611.737 386.732C616.054 389.256 619.989 393.199 621.104 398.224C622.589 404.913 619.383 411.754 619.204 418.442C619.056 423.96 621.201 430.126 626.932 432C632.323 433.763 636.886 429.371 638.351 424.511C639.287 421.406 639.315 418.075 639.252 414.861C639.182 411.291 638.846 407.731 638.34 404.199C637.286 396.841 635.471 389.621 633.612 382.433C632.244 377.143 630.923 371.409 627.175 367.224C623.457 363.073 617.688 361.584 612.516 360.161C607.108 358.673 601.008 357.279 597.162 352.868C596.845 352.504 596.316 353.036 596.633 353.399Z" fill="white"/>
<path d="M596.798 408.461C600.112 409.821 603.51 411.336 606.259 413.681C607.601 414.826 608.792 416.193 609.474 417.837C610.419 420.114 610.293 422.648 609.884 425.029C609.076 429.739 607.788 434.339 607.097 439.08C606.433 443.637 606.029 448.23 605.897 452.833C605.743 458.206 605.965 463.582 606.535 468.926C606.586 469.401 607.336 469.406 607.285 468.926C606.2 458.75 606.402 448.445 607.963 438.328C608.354 435.792 608.828 433.269 609.384 430.763C609.884 428.507 610.509 426.27 610.796 423.973C611.289 420.028 610.342 416.485 607.427 413.723C604.496 410.946 600.687 409.253 596.998 407.739C596.551 407.555 596.357 408.28 596.798 408.461Z" fill="white"/>
<path d="M632.839 449.231C632.811 451.28 631.542 453.155 629.594 453.851C627.654 454.544 625.446 453.934 624.136 452.346C622.833 450.767 622.668 448.468 623.717 446.714C624.76 444.969 626.843 444.022 628.844 444.406C631.158 444.851 632.807 446.893 632.839 449.231C632.846 449.713 633.596 449.715 633.589 449.231C633.557 446.887 632.125 444.777 629.925 443.937C627.694 443.085 625.07 443.79 623.562 445.639C622.073 447.465 621.855 450.095 623.069 452.127C624.28 454.153 626.658 455.209 628.973 454.792C631.644 454.311 633.553 451.91 633.59 449.231C633.596 448.749 632.846 448.748 632.839 449.231Z" fill="white"/>
<path d="M648.712 469.125C642.85 469.125 636.989 469.125 631.127 469.125C621.774 469.125 612.42 469.125 603.067 469.125C600.906 469.125 598.745 469.125 596.584 469.125C596.709 469.25 596.834 469.375 596.959 469.5C596.959 464.29 596.959 459.08 596.959 453.871C596.959 441.365 596.959 428.86 596.959 416.354C596.959 401.319 596.959 386.284 596.959 371.249C596.959 358.185 596.959 345.12 596.959 332.056C596.959 327.757 596.959 323.458 596.959 319.159C596.959 317.824 596.959 316.489 596.959 315.154C596.959 314.551 597.125 313.668 596.959 313.082C596.938 313.007 596.959 312.898 596.959 312.817C596.834 312.942 596.709 313.067 596.584 313.192C602.446 313.192 608.307 313.192 614.169 313.192C623.522 313.192 632.876 313.192 642.229 313.192C644.39 313.192 646.551 313.192 648.712 313.192C648.587 313.067 648.462 312.942 648.337 312.817C648.337 318.027 648.337 323.237 648.337 328.447C648.337 340.953 648.337 353.458 648.337 365.964C648.337 380.999 648.337 396.034 648.337 411.069C648.337 424.133 648.337 437.198 648.337 450.262C648.337 454.561 648.337 458.86 648.337 463.159C648.337 465.152 648.148 467.25 648.337 469.236C648.345 469.322 648.337 469.413 648.337 469.501C648.337 469.984 649.087 469.984 649.087 469.501C649.087 464.291 649.087 459.081 649.087 453.872C649.087 441.366 649.087 428.861 649.087 416.355C649.087 401.32 649.087 386.285 649.087 371.25C649.087 358.186 649.087 345.121 649.087 332.057C649.087 327.758 649.087 323.459 649.087 319.16C649.087 317.168 649.276 315.069 649.087 313.083C649.079 312.996 649.087 312.906 649.087 312.818C649.087 312.615 648.915 312.443 648.712 312.443C642.85 312.443 636.989 312.443 631.127 312.443C621.774 312.443 612.42 312.443 603.067 312.443C600.906 312.443 598.745 312.443 596.584 312.443C596.381 312.443 596.209 312.615 596.209 312.818C596.209 318.028 596.209 323.238 596.209 328.448C596.209 340.954 596.209 353.459 596.209 365.965C596.209 381 596.209 396.035 596.209 411.07C596.209 424.134 596.209 437.199 596.209 450.263C596.209 454.562 596.209 458.861 596.209 463.16C596.209 465.153 596.02 467.251 596.209 469.237C596.217 469.323 596.209 469.414 596.209 469.502C596.209 469.705 596.381 469.877 596.584 469.877C602.446 469.877 608.307 469.877 614.169 469.877C623.522 469.877 632.876 469.877 642.229 469.877C644.39 469.877 646.551 469.877 648.712 469.877C649.194 469.875 649.195 469.125 648.712 469.125Z" fill="#2C2C2C"/>
<path d="M330.087 452.538H202.546V468.91H330.087V452.538Z" fill="#8C98E9"/>
<path d="M295.505 453.132C295.505 458.256 295.505 463.38 295.505 468.504C295.505 468.986 296.255 468.987 296.255 468.504C296.255 463.38 296.255 458.256 296.255 453.132C296.255 452.65 295.505 452.649 295.505 453.132Z" fill="white"/>
<path d="M276.248 453.132C276.248 458.256 276.248 463.38 276.248 468.504C276.248 468.986 276.998 468.987 276.998 468.504C276.998 463.38 276.998 458.256 276.998 453.132C276.998 452.65 276.248 452.649 276.248 453.132Z" fill="white"/>
<path d="M256.99 453.132C256.99 458.256 256.99 463.38 256.99 468.504C256.99 468.986 257.74 468.987 257.74 468.504C257.74 463.38 257.74 458.256 257.74 453.132C257.74 452.65 256.99 452.649 256.99 453.132Z" fill="white"/>
<path d="M237.732 453.132C237.732 458.256 237.732 463.38 237.732 468.504C237.732 468.986 238.482 468.987 238.482 468.504C238.482 463.38 238.482 458.256 238.482 453.132C238.482 452.65 237.732 452.649 237.732 453.132Z" fill="white"/>
<path d="M218.475 453.132C218.475 458.256 218.475 463.38 218.475 468.504C218.475 468.986 219.225 468.987 219.225 468.504C219.225 463.38 219.225 458.256 219.225 453.132C219.225 452.65 218.475 452.649 218.475 453.132Z" fill="white"/>
<path d="M153.053 107.406C147.745 107.406 142.437 107.406 137.129 107.406C125.332 107.406 113.536 107.406 101.739 107.406C89.6445 107.406 77.5495 107.406 65.4555 107.406C59.2715 107.406 53.0455 107.616 46.8645 107.406C45.0095 107.343 44.3555 105.97 44.3555 104.352C44.3555 102.058 44.3555 99.763 44.3555 97.469C44.3555 92.215 44.2685 86.952 44.3555 81.698C44.4065 78.614 47.0765 78.973 49.2325 78.973C52.5725 78.973 55.9115 78.973 59.2515 78.973C70.5895 78.973 81.9265 78.973 93.2645 78.973C105.619 78.973 117.974 78.973 130.328 78.973C137.596 78.973 144.863 78.973 152.131 78.973C153.06 78.973 153.955 78.912 154.697 79.654C155.828 80.785 155.378 83.436 155.378 84.874C155.378 90.71 155.378 96.545 155.378 102.381C155.378 104.311 155.831 107.245 153.053 107.406C152.253 107.452 152.248 108.702 153.053 108.656C155.056 108.54 156.541 107.109 156.627 105.082C156.646 104.641 156.627 104.196 156.627 103.755C156.627 101.141 156.627 98.526 156.627 95.912C156.627 91.059 156.824 86.161 156.627 81.311C156.539 79.151 154.901 77.754 152.804 77.723C152.064 77.712 151.323 77.723 150.583 77.723C147.159 77.723 143.736 77.723 140.312 77.723C128.534 77.723 116.756 77.723 104.978 77.723C92.4005 77.723 79.8225 77.723 67.2455 77.723C60.4845 77.723 53.7155 77.625 46.9555 77.723C44.8575 77.753 43.1965 79.124 43.1045 81.301C43.0385 82.875 43.1045 84.467 43.1045 86.042C43.1045 91.884 43.1045 97.725 43.1045 103.567C43.1045 104.066 43.0845 104.57 43.1045 105.069C43.1765 106.837 44.3745 108.352 46.1685 108.615C46.6905 108.692 47.2365 108.657 47.7625 108.657C50.6075 108.657 53.4515 108.657 56.2965 108.657C67.4665 108.657 78.6365 108.657 89.8065 108.657C102.678 108.657 115.55 108.657 128.421 108.657C136.251 108.657 144.082 108.657 151.912 108.657C152.292 108.657 152.672 108.657 153.052 108.657C153.858 108.656 153.859 107.406 153.053 107.406Z" fill="white"/>
<path d="M60.5823 99.01C64.2937 99.01 67.3023 96.0014 67.3023 92.29C67.3023 88.5787 64.2937 85.57 60.5823 85.57C56.871 85.57 53.8623 88.5787 53.8623 92.29C53.8623 96.0014 56.871 99.01 60.5823 99.01Z" fill="white"/>
<path d="M77.8973 94.882C97.5863 94.882 117.276 94.882 136.965 94.882C137.769 94.882 137.771 93.632 136.965 93.632C117.275 93.632 97.5863 93.632 77.8973 93.632C77.0933 93.632 77.0923 94.882 77.8973 94.882Z" fill="white"/>
<path d="M43.4848 248.871H101.942C103.792 248.871 105.292 247.371 105.292 245.521V209.087C105.292 207.237 103.792 205.737 101.942 205.737H43.4848C41.6348 205.737 40.1348 207.237 40.1348 209.087V245.521C40.1348 247.371 41.6348 248.871 43.4848 248.871Z" fill="white"/>
<path d="M63.9348 213.86C58.2688 213.86 52.6028 213.86 46.9368 213.86C46.1328 213.86 46.1308 215.11 46.9368 215.11C52.6028 215.11 58.2688 215.11 63.9348 215.11C64.7398 215.11 64.7408 213.86 63.9348 213.86Z" fill="#8C98E9"/>
<path d="M100.622 226.862C96.4447 221.846 87.5647 221.928 82.4967 225.543C80.7947 226.757 79.5297 228.458 77.9377 229.797C75.8887 231.52 73.3567 231.991 70.7407 231.801C66.6437 231.504 62.6867 230.08 58.5667 229.966C54.7387 229.86 49.7747 230.237 46.6227 232.666C45.9947 233.15 46.6157 234.237 47.2537 233.745C50.0537 231.587 54.3267 231.222 57.7327 231.207C61.6577 231.189 65.4717 232.353 69.3357 232.895C71.3497 233.177 73.4487 233.219 75.4117 232.61C77.3567 232.008 78.8647 230.733 80.2727 229.31C81.5577 228.013 82.7787 226.684 84.4227 225.841C85.8847 225.091 87.5157 224.642 89.1387 224.42C92.9547 223.899 97.1707 224.662 99.7387 227.746C100.254 228.365 101.134 227.476 100.622 226.862Z" fill="#8C98E9"/>
<path d="M355.801 56.464L353.283 57.929C352.711 58.262 352.734 59.095 353.322 59.396L355.914 60.726C356.056 60.799 356.175 60.911 356.255 61.05L357.72 63.568C358.053 64.14 358.885 64.117 359.187 63.529L360.517 60.937C360.59 60.795 360.702 60.676 360.841 60.596L363.359 59.131C363.931 58.798 363.908 57.965 363.32 57.664L360.728 56.334C360.586 56.261 360.467 56.149 360.387 56.01L358.922 53.492C358.59 52.92 357.757 52.943 357.455 53.531L356.125 56.123C356.051 56.265 355.939 56.383 355.801 56.464Z" fill="white"/>
<path d="M387.884 77.718L385.366 79.183C384.794 79.516 384.817 80.349 385.405 80.65L387.997 81.98C388.139 82.053 388.258 82.165 388.338 82.304L389.803 84.822C390.136 85.393 390.968 85.371 391.27 84.783L392.6 82.191C392.673 82.049 392.785 81.93 392.924 81.85L395.442 80.385C396.014 80.052 395.991 79.22 395.403 78.918L392.811 77.588C392.669 77.515 392.55 77.403 392.47 77.264L391.005 74.746C390.673 74.174 389.84 74.197 389.538 74.785L388.208 77.377C388.134 77.519 388.022 77.637 387.884 77.718Z" fill="white"/>
<path d="M382.428 343.524L379.91 344.989C379.338 345.322 379.36 346.154 379.949 346.456L382.541 347.786C382.683 347.859 382.802 347.971 382.882 348.11L384.347 350.628C384.679 351.2 385.512 351.177 385.814 350.589L387.144 347.997C387.217 347.855 387.329 347.736 387.468 347.656L389.986 346.191C390.558 345.858 390.535 345.026 389.947 344.724L387.355 343.394C387.213 343.321 387.094 343.209 387.014 343.07L385.549 340.552C385.217 339.98 384.384 340.003 384.082 340.591L382.752 343.183C382.679 343.325 382.567 343.444 382.428 343.524Z" fill="white"/>
<path d="M350.227 351.084L348.85 351.885C348.537 352.067 348.549 352.522 348.871 352.687L350.288 353.414C350.366 353.454 350.431 353.515 350.475 353.591L351.276 354.968C351.458 355.281 351.913 355.268 352.078 354.947L352.805 353.53C352.845 353.452 352.906 353.387 352.982 353.343L354.359 352.542C354.672 352.36 354.66 351.905 354.338 351.74L352.921 351.013C352.843 350.973 352.778 350.912 352.734 350.836L351.933 349.459C351.751 349.146 351.296 349.159 351.131 349.48L350.404 350.897C350.365 350.976 350.303 351.04 350.227 351.084Z" fill="white"/>
<path d="M440.386 294.025L438.663 295.028C438.272 295.256 438.287 295.826 438.69 296.032L440.464 296.942C440.561 296.992 440.642 297.069 440.697 297.163L441.7 298.886C441.927 299.277 442.497 299.262 442.704 298.859L443.614 297.085C443.664 296.988 443.741 296.907 443.835 296.852L445.558 295.85C445.949 295.622 445.934 295.052 445.531 294.846L443.757 293.936C443.66 293.886 443.579 293.809 443.524 293.715L442.522 291.992C442.294 291.601 441.725 291.616 441.518 292.019L440.608 293.793C440.557 293.889 440.48 293.97 440.386 294.025Z" fill="white"/>
<path d="M309.909 269.8L307.187 271.384C306.569 271.743 306.593 272.644 307.229 272.97L310.031 274.408C310.185 274.487 310.313 274.608 310.4 274.758L311.984 277.48C312.343 278.098 313.244 278.074 313.57 277.438L315.008 274.636C315.087 274.482 315.208 274.354 315.358 274.267L318.08 272.683C318.698 272.324 318.674 271.423 318.038 271.097L315.236 269.659C315.082 269.58 314.954 269.459 314.867 269.309L313.283 266.587C312.924 265.969 312.023 265.993 311.697 266.629L310.259 269.431C310.18 269.585 310.058 269.713 309.909 269.8Z" fill="white"/>
<path d="M77.8332 133.374L76.0282 134.427C75.6182 134.666 75.6352 135.264 76.0572 135.479L77.9172 136.43C78.0192 136.482 78.1042 136.563 78.1622 136.662L79.2152 138.467C79.4542 138.877 80.0522 138.86 80.2672 138.438L81.2182 136.577C81.2702 136.475 81.3512 136.39 81.4502 136.332L83.2552 135.279C83.6652 135.04 83.6482 134.442 83.2262 134.227L81.3652 133.275C81.2632 133.223 81.1782 133.142 81.1202 133.043L80.0672 131.238C79.8282 130.828 79.2312 130.845 79.0152 131.267L78.0642 133.128C78.0132 133.231 77.9322 133.316 77.8332 133.374Z" fill="#FFFFFC"/>
<path d="M63.4767 147.178L62.3597 147.83C62.1067 147.978 62.1167 148.348 62.3777 148.481L63.5287 149.07C63.5917 149.102 63.6447 149.152 63.6807 149.213L64.3327 150.33C64.4807 150.583 64.8497 150.573 64.9837 150.312L65.5727 149.161C65.6047 149.098 65.6547 149.045 65.7157 149.009L66.8327 148.357C67.0867 148.209 67.0757 147.839 66.8147 147.706L65.6637 147.117C65.6007 147.085 65.5477 147.035 65.5117 146.974L64.8597 145.857C64.7117 145.603 64.3417 145.614 64.2087 145.875L63.6197 147.026C63.5877 147.09 63.5377 147.143 63.4767 147.178Z" fill="#FFFFFC"/>
<path d="M100.18 235.409C92.4206 235.983 87.8826 228.237 82.5046 224.041C79.3056 221.545 75.1976 219.396 71.2846 221.623C67.3256 223.876 65.9576 228.385 63.9486 232.163C61.3556 237.039 56.4946 240.028 50.8946 239.457C50.0946 239.375 50.1006 240.626 50.8946 240.707C55.0576 241.132 59.3256 239.635 62.2826 236.659C65.6476 233.274 66.4026 228.263 69.5136 224.719C76.4036 216.87 84.2796 227.894 89.4106 232.24C92.4496 234.814 96.0566 236.964 100.179 236.659C100.978 236.6 100.984 235.35 100.18 235.409Z" fill="#E7A5DD"/>
<path d="M412.641 304.319L353.165 307.193C349.252 307.382 345.926 304.363 345.737 300.45L345.635 298.346C345.446 294.433 348.465 291.107 352.378 290.918L412.097 288.033C416.01 287.844 419.336 290.863 419.525 294.776L419.615 296.636C419.811 300.684 416.688 304.124 412.641 304.319Z" fill="#8C98E9"/>
<path d="M403.809 319.577L364.822 321.461C360.842 321.653 357.459 318.583 357.267 314.602L357.177 312.742C356.985 308.762 360.055 305.379 364.036 305.187L403.023 303.303C407.003 303.111 410.386 306.182 410.578 310.162L410.668 312.022C410.86 316.002 407.79 319.384 403.809 319.577Z" fill="#8C98E9"/>
<path d="M375.295 266.136C418.469 266.136 453.468 231.137 453.468 187.963C453.468 144.789 418.469 109.79 375.295 109.79C332.121 109.79 297.122 144.789 297.122 187.963C297.122 231.137 332.121 266.136 375.295 266.136Z" fill="#F9CA51"/>
<path d="M343.306 256.677L355.887 285.549L410.102 282.356L421.829 245.397L343.306 256.677Z" fill="#F9CA51"/>
<path d="M367.458 282.998C363.247 270.135 359.708 257.057 356.878 243.821C354.022 230.461 351.585 216.816 350.485 203.186C350.012 197.318 350.573 189.917 356.242 186.562C361.129 183.67 367.546 185.719 371.24 189.597C375.306 193.866 377.099 200.232 377.393 206.005C377.549 209.073 377.074 212.423 374.713 214.615C372.61 216.568 369.374 217.154 367.188 215.004C363.658 211.533 364.657 204.964 365.878 200.742C367.468 195.243 371.11 190.329 376.848 188.81C382.372 187.347 388.397 189.025 392.747 192.615C397.19 196.283 400.014 201.635 401.428 207.153C402.224 210.26 402.737 213.913 400.781 216.713C398.892 219.417 395.492 219.805 393.015 217.621C390.578 215.472 390.075 211.939 390.11 208.862C390.14 206.237 390.642 203.616 391.603 201.172C393.475 196.413 397.329 192.323 402.484 191.327C407.067 190.442 412.495 191.96 415.134 196.019C418.672 201.46 416.186 208.377 413.94 213.8C411.443 219.827 408.965 225.829 406.887 232.018C402.706 244.472 399.7 257.319 397.921 270.335C397.495 273.453 397.139 276.58 396.849 279.714C396.775 280.515 398.025 280.51 398.099 279.714C399.489 264.683 402.503 249.819 407.083 235.436C409.372 228.248 412.163 221.293 415.061 214.336C417.449 208.604 419.907 201.467 416.38 195.655C413.77 191.354 408.438 189.427 403.583 189.914C398.207 190.454 393.822 193.998 391.361 198.71C388.777 203.656 387.657 210.719 390.187 215.905C391.368 218.326 393.789 220.322 396.577 220.354C399.261 220.384 401.5 218.438 402.563 216.088C403.988 212.934 403.33 209.27 402.429 206.068C401.603 203.133 400.395 200.281 398.772 197.696C395.59 192.629 390.724 188.631 384.768 187.433C378.891 186.251 372.712 187.863 368.761 192.517C365.159 196.759 363.331 202.925 363.586 208.455C363.801 213.126 366.599 219.005 372.278 217.417C378.787 215.597 379.123 207.922 378.235 202.433C377.265 196.436 374.796 190.091 369.578 186.554C365.071 183.499 358.659 182.838 354.259 186.436C348.839 190.869 348.741 198.498 349.387 204.858C350.148 212.356 351.212 219.832 352.455 227.265C355.001 242.497 358.471 257.575 362.842 272.388C363.923 276.053 365.062 279.701 366.251 283.332C366.502 284.091 367.709 283.766 367.458 282.998Z" fill="#2C2C2C"/>
<path d="M417.046 288.916L349.003 292.204C345.023 292.396 341.64 289.326 341.448 285.345L341.358 283.485C341.166 279.505 344.237 276.122 348.217 275.93L416.26 272.642C420.24 272.45 423.623 275.521 423.815 279.501L423.905 281.361C424.097 285.341 421.026 288.724 417.046 288.916Z" fill="#8C98E9"/>
<path d="M348.013 292.728C365.796 291.947 383.579 291.165 401.362 290.383C406.408 290.161 411.453 289.94 416.498 289.718C417.299 289.683 417.304 288.433 416.498 288.468C398.715 289.25 380.932 290.031 363.149 290.813C358.103 291.035 353.058 291.256 348.013 291.478C347.211 291.513 347.207 292.763 348.013 292.728Z" fill="#2C2C2C"/>
<path d="M358.491 307.896C375.506 306.958 392.522 306.019 409.537 305.081C410.337 305.037 410.342 303.787 409.537 303.831C392.522 304.77 375.506 305.708 358.491 306.646C357.691 306.69 357.686 307.941 358.491 307.896Z" fill="#2C2C2C"/>
<path d="M421.833 139.691C431.516 145.377 437.481 155.483 440.877 165.922C444.753 177.835 445.78 190.554 443.31 202.864C441.912 209.83 439.461 216.548 436.052 222.78C435.666 223.486 436.745 224.118 437.131 223.411C443.316 212.101 446.393 199.163 445.874 186.275C445.391 174.274 442.081 161.635 435.527 151.476C432.172 146.275 427.82 141.757 422.463 138.612C421.769 138.203 421.139 139.283 421.833 139.691Z" fill="white"/>
<g opacity="0.3">
<path d="M351.172 126.208C361.347 127.061 362.704 135.359 361.609 142.491C360.514 149.622 355.598 155.514 350.594 160.711C345.59 165.908 340.15 171.046 337.512 177.762C335.89 181.891 335.433 186.382 334.112 190.616C332.791 194.851 330.293 199.091 326.179 200.75C321.301 202.717 315.459 200.302 312.197 196.176C308.935 192.051 307.82 186.614 307.568 181.361C306.407 157.165 319.563 133.934 342.8 127.088C342.8 127.088 348.639 125.996 351.172 126.208Z" fill="white"/>
</g>
<g opacity="0.68">
<path d="M514.206 134.885C513.047 131.848 509.919 131.536 507.348 131.636L234.684 136.196C231.235 150.053 247.258 193.562 252.492 206.403C277.988 268.961 299.564 330.324 325.06 392.882L437.488 393.973C463.886 307.884 487.231 228.373 513.629 142.285C514.357 139.911 515.079 137.172 514.206 134.885Z" fill="url(#paint0_linear_860_27645)"/>
</g>
<path d="M441.052 392.209H319.646V468.894H441.052V392.209Z" fill="#8C98E9"/>
<path d="M349.629 393.084C349.629 412.536 349.629 431.988 349.629 451.439C349.629 456.925 349.629 462.412 349.629 467.898C349.629 468.381 350.379 468.381 350.379 467.898C350.379 448.446 350.379 428.994 350.379 409.543C350.379 404.057 350.379 398.57 350.379 393.084C350.379 392.602 349.629 392.601 349.629 393.084Z" fill="white"/>
<path d="M398.012 468.894V439.9L441.054 418.966" stroke="white" stroke-miterlimit="10"/>
<path d="M319.387 392.742C319.387 412.455 319.387 432.169 319.387 451.882C319.387 457.514 319.387 463.147 319.387 468.779C319.387 469.262 320.137 469.262 320.137 468.779C320.137 449.066 320.137 429.352 320.137 409.639C320.137 404.007 320.137 398.374 320.137 392.742C320.137 392.259 319.387 392.258 319.387 392.742Z" fill="white"/>
<path d="M361.288 400.355C361.288 401.175 360.624 401.839 359.804 401.839C358.984 401.839 358.32 401.174 358.32 400.355C358.32 399.535 358.985 398.871 359.804 398.871C360.624 398.871 361.288 399.535 361.288 400.355Z" fill="white"/>
<path d="M361.288 420.755C361.288 421.575 360.624 422.239 359.804 422.239C358.984 422.239 358.32 421.575 358.32 420.755C358.32 419.935 358.985 419.271 359.804 419.271C360.624 419.271 361.288 419.935 361.288 420.755Z" fill="white"/>
<path d="M361.288 441.155C361.288 441.975 360.624 442.639 359.804 442.639C358.984 442.639 358.32 441.975 358.32 441.155C358.32 440.335 358.985 439.671 359.804 439.671C360.624 439.671 361.288 440.335 361.288 441.155Z" fill="white"/>
<path d="M361.288 461.555C361.288 462.375 360.624 463.039 359.804 463.039C358.984 463.039 358.32 462.374 358.32 461.555C358.32 460.736 358.985 460.071 359.804 460.071C360.624 460.071 361.288 460.736 361.288 461.555Z" fill="white"/>
<path d="M407.284 461.185C407.284 462.005 406.62 462.669 405.8 462.669C404.98 462.669 404.316 462.004 404.316 461.185C404.316 460.365 404.98 459.701 405.8 459.701C406.62 459.7 407.284 460.365 407.284 461.185Z" fill="white"/>
<path d="M407.284 445.83C407.284 446.65 406.62 447.314 405.8 447.314C404.98 447.314 404.316 446.65 404.316 445.83C404.316 445.01 404.98 444.346 405.8 444.346C406.62 444.346 407.284 445.01 407.284 445.83Z" fill="white"/>
<path d="M304.105 183.739C302.593 195.69 304.432 207.966 309.334 218.968C313.844 229.089 320.994 237.892 329.836 244.549C334.79 248.279 340.258 251.269 346.051 253.474C346.804 253.76 347.129 252.552 346.383 252.269C325.486 244.316 309.966 225.699 305.901 203.716C304.683 197.131 304.514 190.381 305.355 183.739C305.455 182.943 304.204 182.951 304.105 183.739Z" fill="white"/>
<defs>
<linearGradient id="paint0_linear_860_27645" x1="377.738" y1="394.753" x2="374.328" y2="133.364" gradientUnits="userSpaceOnUse">
<stop stop-color="white"/>
<stop offset="1" stop-color="white" stop-opacity="0"/>
</linearGradient>
</defs>
</svg>
